<?xml version="1.0" encoding="utf-8"?>
<!-- Generator: Adobe Illustrator 22.0.0, SVG Export Plug-In . SVG Version: 6.00 Build 0)  -->
<svg version="1.1" id="Layer_1" xmlns="http://www.w3.org/2000/svg" xmlns:xlink="http://www.w3.org/1999/xlink" x="0px" y="0px"
	 viewBox="0 0 300 100" style="enable-background:new 0 0 300 100;" xml:space="preserve">
<style type="text/css">
	.st0{fill:none;stroke:#666666;stroke-width:3;stroke-miterlimit:10;}
	.st1{fill:#666666;}
	.st2{font-family:'Haettenschweiler';}
	.st3{font-size:24px;}
</style>
<g>
	<g>
		<polygon class="st0" points="21.6,22 21.6,29 36.6,29 36.6,36.5 21.6,36.5 21.6,43.4 32.6,43.4 32.6,36.5 40.7,36.5 40.7,43.4 
			44.1,43.4 44.1,22 		"/>
		<polygon class="st0" points="66.6,22 44.1,22 44.1,43.4 47.6,43.4 47.6,36.5 55.7,36.5 55.7,43.4 66.6,43.4 66.6,36.5 51.6,36.5 
			51.6,29 66.6,29 		"/>
		<polygon class="st0" points="66.6,29 74.1,29 74.1,50.9 55.7,50.8 55.7,43.4 66.6,43.4 66.6,36.5 51.6,36.5 51.6,29 		"/>
		<polygon class="st0" points="36.6,29 14.1,29 14.1,50.3 32.6,50.3 32.6,43.4 21.6,43.4 21.6,36.5 36.6,36.5 		"/>
		<polygon class="st0" points="36.6,64.7 21.6,64.7 21.6,57.8 32.6,57.8 32.6,50.3 14.1,50.3 14.1,71.6 36.6,71.6 		"/>
		<polygon class="st0" points="44.1,58.4 44.1,78.6 21.4,78.6 21.4,71.6 36.6,71.6 36.6,64.7 21.6,64.7 21.6,57.8 44.1,57.8 		"/>
		<polygon class="st0" points="44.1,57.8 66.6,57.8 66.6,64.7 51.6,64.7 51.6,71.6 66.6,71.6 66.6,78.6 44.1,78.6 		"/>
		<polygon class="st0" points="74.1,50.9 74.1,71.6 51.6,71.6 51.6,64.7 66.6,64.7 66.6,57.8 55.7,57.8 55.7,50.8 		"/>
		<rect x="40.7" y="43.4" class="st0" width="6.9" height="6.3"/>
		<polygon class="st0" points="32.6,36.5 32.6,57.8 55.7,57.8 55.7,36.5 47.6,36.5 47.6,49.7 40.7,49.7 40.7,36.5 		"/>
	</g>
	<g>
		<text transform="matrix(1 0 0 1 82.9836 41.5315)" class="st1 st2 st3">GOBIERNO REGIONAL DE LIMA</text>
		<rect x="82.8" y="45.2" class="st1" width="202.9" height="4"/>
		<text transform="matrix(1 0 0 1 92.4111 71.5315)" class="st1 st2 st3">Agencia Agraria - Cañete</text>
	</g>
</g>
</svg>
