<?xml version="1.0" encoding="utf-8"?>
<!-- Generator: Adobe Illustrator 22.0.0, SVG Export Plug-In . SVG Version: 6.00 Build 0)  -->
<svg version="1.1" id="Layer_1" xmlns="http://www.w3.org/2000/svg" xmlns:xlink="http://www.w3.org/1999/xlink" x="0px" y="0px"
	 viewBox="0 0 256 256" style="enable-background:new 0 0 256 256;" xml:space="preserve">
<style type="text/css">
	.st0{fill:none;stroke:#FFFFFF;stroke-width:7;stroke-miterlimit:10;}
</style>
<g>
	<polygon class="st0" points="76.1,64.5 76.1,81.2 112.4,81.2 112.4,99.4 76.1,99.4 76.1,116.1 102.6,116.1 102.6,99.4 122.1,99.4 
		122.1,116.1 130.5,116.1 130.5,64.5 	"/>
	<polygon class="st0" points="184.9,64.5 130.5,64.5 130.5,116.1 138.9,116.1 138.9,99.4 158.4,99.4 158.4,116.1 184.9,116.1 
		184.9,99.4 148.6,99.4 148.6,81.2 184.9,81.2 	"/>
	<polygon class="st0" points="184.9,81.2 203,81.2 203,134.2 158.4,134 158.4,116.1 184.9,116.1 184.9,99.4 148.6,99.4 148.6,81.2 	
		"/>
	<polygon class="st0" points="112.4,81.2 58,81.2 58,132.8 102.6,132.8 102.6,116.1 76.1,116.1 76.1,99.4 112.4,99.4 	"/>
	<polygon class="st0" points="112.4,167.7 76.1,167.7 76.1,150.9 102.6,150.9 102.6,132.8 58,132.8 58,184.4 112.4,184.4 	"/>
	<polygon class="st0" points="130.5,152.3 130.5,201.1 75.7,201.1 75.7,184.4 112.4,184.4 112.4,167.7 76.1,167.7 76.1,150.9 
		130.5,150.9 	"/>
	<polygon class="st0" points="130.5,150.9 184.9,150.9 184.9,167.7 148.6,167.7 148.6,184.4 184.9,184.4 184.9,201.1 130.5,201.1 	
		"/>
	<polygon class="st0" points="203,134.2 203,184.4 148.6,184.4 148.6,167.7 184.9,167.7 184.9,150.9 158.4,150.9 158.4,134 	"/>
	<rect x="122.1" y="116.1" class="st0" width="16.7" height="15.3"/>
	<polygon class="st0" points="102.6,99.4 102.6,150.9 158.4,150.9 158.4,99.4 138.9,99.4 138.9,131.4 122.1,131.4 122.1,99.4 	"/>
</g>
</svg>
