<?xml version="1.0" encoding="utf-8"?>
<!-- Generator: Adobe Illustrator 22.0.0, SVG Export Plug-In . SVG Version: 6.00 Build 0)  -->
<svg version="1.1" id="Layer_1" xmlns="http://www.w3.org/2000/svg" xmlns:xlink="http://www.w3.org/1999/xlink" x="0px" y="0px"
	 viewBox="0 0 256 256" style="enable-background:new 0 0 256 256;" xml:space="preserve">
<style type="text/css">
	.st0{fill-rule:evenodd;clip-rule:evenodd;fill:#FFFFFF;}
</style>
<g id="TEXT">
	<path class="st0" d="M191.6,129.9c-4-4-8.8-5.9-14.3-5.9c-5.5,0-10.2,1.9-14.1,5.9c-4,4-5.9,8.8-5.9,14.4c0,5.6,1.9,10.4,5.9,14.3
		c3.9,4,8.6,6,14.1,6c5.5,0,10.3-2,14.3-6c3.9-3.9,5.8-8.7,5.8-14.3C197.4,138.7,195.5,133.9,191.6,129.9L191.6,129.9z M184.8,151.8
		c-2,2.1-4.5,3.2-7.5,3.2c-2.9,0-5.4-1-7.4-3.2c-2-2.1-3.2-4.6-3.2-7.5c0-3.1,1.1-5.6,3.2-7.6c2-2.1,4.5-3.2,7.4-3.1
		c3-0.1,5.5,0.9,7.6,3.1c1.9,2,3,4.5,3.1,7.6C187.9,147.2,186.9,149.7,184.8,151.8L184.8,151.8z"/>
	<path class="st0" d="M50.3,114.1c-7-0.1-12.7,2.3-17.5,7.3c-4.9,4.9-7.3,10.8-7.3,17.7c0,6.9,2.4,12.9,7.3,17.8
		c4.8,4.8,10.6,7.2,17.5,7.2c5.6,0,10.7-1.7,15.1-5.1c4.4-3.5,7.2-7.9,8.7-13.3H64.1c-1.3,2.6-3.2,4.7-5.5,6.4
		c-2.6,1.6-5.3,2.4-8.3,2.4c-4.3,0-7.9-1.6-10.9-4.5c-3.1-3.1-4.5-6.7-4.5-10.9c-0.1-4.3,1.4-7.9,4.5-10.9c3-3,6.6-4.5,10.9-4.5
		c3,0,5.7,0.8,8.3,2.5c2.3,1.6,4.2,3.8,5.5,6.4h10.1c-1.5-5.4-4.4-9.8-8.7-13.3C61,115.7,55.9,114,50.3,114.1L50.3,114.1z"/>
	<path class="st0" d="M111.5,123.9c-6.5-0.1-11,1.7-13.6,5.1c-1.7,2.1-2.5,4.9-2.8,8.4h9.6c0.2-1.7,0.7-2.8,1.4-3.5
		c1-1.3,2.7-1.9,5.1-1.9c2-0.1,3.6,0.3,4.7,0.9c1.1,0.6,1.6,1.7,1.7,3.2c0,1.3-0.7,2.3-2.2,3l-7.4,1.2c-3.4,0.5-6.2,1.3-8.3,2.5
		c-3.6,2.1-5.4,5.6-5.3,10.5c-0.1,3.4,1,6.2,3.2,8.3c1.9,1.7,4.6,2.6,7.9,2.7c5.3-0.1,9.5-1.4,12.4-4v4h9.6v-28.4
		c0-4.6-1.7-7.9-4.8-9.6C119.4,124.6,115.7,123.8,111.5,123.9L111.5,123.9z M115.6,145.7l1.9-1v3.9c0,3.3-0.9,5.7-2.7,7
		c-1.9,1.3-3.8,1.9-6,1.9c-1.4,0-2.5-0.4-3.4-1.1c-0.9-0.8-1.4-2-1.4-3.8c0-1.9,0.7-3.3,2.3-4.4c0.9-0.6,2.5-1,4.5-1.3L115.6,145.7
		L115.6,145.7z"/>
	<polygon class="st0" points="88.7,114.1 79.1,114.1 79.1,164.3 88.7,164.3 88.7,114.1 	"/>
	<path class="st0" d="M150.1,125.3c-2.6,1-4.9,2.8-6.9,5.5v-4.9l-9.2-0.1v38.6h9.6v-18.5c0-3.1,0.4-5.4,1.2-6.8
		c0.6-1.5,1.9-2.7,3.3-3.7c1.7-1.1,3.4-1.7,5.3-1.7l3,0.2l-0.1-9.8l-2.5,0.2L150.1,125.3L150.1,125.3z"/>
	<polygon class="st0" points="199.1,125.5 222.4,102.2 216.3,96.1 193,119.3 199.1,125.5 	"/>
	<polygon class="st0" points="182.8,116.2 182.8,91.2 174.1,91.2 174.1,116.2 182.8,116.2 	"/>
	<polygon class="st0" points="203.4,135.1 203.4,143.7 228.9,143.7 228.9,135.1 203.4,135.1 	"/>
</g>
</svg>
