<?xml version="1.0" encoding="utf-8"?>
<!-- Generator: Adobe Illustrator 22.0.0, SVG Export Plug-In . SVG Version: 6.00 Build 0)  -->
<svg version="1.1" id="Layer_1" xmlns="http://www.w3.org/2000/svg" xmlns:xlink="http://www.w3.org/1999/xlink" x="0px" y="0px"
	 viewBox="0 0 300 100" style="enable-background:new 0 0 300 100;" xml:space="preserve">
<style type="text/css">
	.st0{fill:#666666;}
	.st1{fill:#666666;stroke:#666666;stroke-width:0.75;stroke-miterlimit:10;}
</style>
<g id="TEXT">
	<path class="st0" d="M216,38.9c-4-4-8.8-5.9-14.3-5.9s-10.2,1.9-14.1,5.9c-4,4-5.9,8.8-5.9,14.4s1.9,10.4,5.9,14.3
		c3.9,4,8.6,6,14.1,6s10.3-2,14.3-6c3.9-3.9,5.8-8.7,5.8-14.3S219.9,42.9,216,38.9L216,38.9z M209.2,60.8c-2,2.1-4.5,3.2-7.5,3.2
		c-2.9,0-5.4-1-7.4-3.2c-2-2.1-3.2-4.6-3.2-7.5c0-3.1,1.1-5.6,3.2-7.6c2-2.1,4.5-3.2,7.4-3.1c3-0.1,5.5,0.9,7.6,3.1
		c1.9,2,3,4.5,3.1,7.6C212.3,56.2,211.3,58.7,209.2,60.8L209.2,60.8z"/>
	<path class="st0" d="M74.7,23.1c-7-0.1-12.7,2.3-17.5,7.3c-4.9,4.9-7.3,10.8-7.3,17.7s2.4,12.9,7.3,17.8c4.8,4.8,10.6,7.2,17.5,7.2
		c5.6,0,10.7-1.7,15.1-5.1c4.4-3.5,7.2-7.9,8.7-13.3h-10c-1.3,2.6-3.2,4.7-5.5,6.4c-2.6,1.6-5.3,2.4-8.3,2.4
		c-4.3,0-7.9-1.6-10.9-4.5c-3.1-3.1-4.5-6.7-4.5-10.9c-0.1-4.3,1.4-7.9,4.5-10.9c3-3,6.6-4.5,10.9-4.5c3,0,5.7,0.8,8.3,2.5
		c2.3,1.6,4.2,3.8,5.5,6.4h10.1c-1.5-5.4-4.4-9.8-8.7-13.3C85.4,24.7,80.3,23,74.7,23.1L74.7,23.1z"/>
	<path class="st0" d="M136,32.9c-6.5-0.1-11,1.7-13.6,5.1c-1.7,2.1-2.5,4.9-2.8,8.4h9.6c0.2-1.7,0.7-2.8,1.4-3.5
		c1-1.3,2.7-1.9,5.1-1.9c2-0.1,3.6,0.3,4.7,0.9c1.1,0.6,1.6,1.7,1.7,3.2c0,1.3-0.7,2.3-2.2,3l-7.4,1.2c-3.4,0.5-6.2,1.3-8.3,2.5
		c-3.6,2.1-5.4,5.6-5.3,10.5c-0.1,3.4,1,6.2,3.2,8.3c1.9,1.7,4.6,2.6,7.9,2.7c5.3-0.1,9.5-1.4,12.4-4v4h9.6V44.9
		c0-4.6-1.7-7.9-4.8-9.6C143.8,33.6,140.1,32.8,136,32.9L136,32.9z M140,54.7l1.9-1v3.9c0,3.3-0.9,5.7-2.7,7c-1.9,1.3-3.8,1.9-6,1.9
		c-1.4,0-2.5-0.4-3.4-1.1c-0.9-0.8-1.4-2-1.4-3.8c0-1.9,0.7-3.3,2.3-4.4c0.9-0.6,2.5-1,4.5-1.3L140,54.7L140,54.7z"/>
	<polygon class="st0" points="113.1,23.1 103.5,23.1 103.5,73.3 113.1,73.3 	"/>
	<path class="st0" d="M174.5,34.3c-2.6,1-4.9,2.8-6.9,5.5v-4.9l-9.2-0.1v38.6h9.6V54.9c0-3.1,0.4-5.4,1.2-6.8
		c0.6-1.5,1.9-2.7,3.3-3.7c1.7-1.1,3.4-1.7,5.3-1.7l3,0.2l-0.1-9.8l-2.5,0.2L174.5,34.3L174.5,34.3z"/>
	<polygon class="st0" points="223.5,34.5 246.8,11.2 240.7,5.1 217.4,28.3 	"/>
	<polygon class="st0" points="207.2,25.2 207.2,0.2 198.6,0.2 198.6,25.2 	"/>
	<polygon class="st0" points="227.8,44.1 227.8,52.7 253.3,52.7 253.3,44.1 	"/>
</g>
<g>
	<path class="st1" d="M40.7,97.2v-15H45c1.1,0,1.9,0.1,2.4,0.3c0.7,0.2,1.3,0.7,1.9,1.3c0.5,0.6,0.9,1.4,1.2,2.4
		c0.3,1,0.4,2.1,0.4,3.4c0,1.7-0.2,3.1-0.7,4.3c-0.5,1.2-1.1,2-1.9,2.5c-0.8,0.5-1.8,0.7-3.1,0.7H40.7z M42.3,95.4H45
		c1.1,0,1.9-0.2,2.4-0.5c0.5-0.3,1-0.9,1.3-1.7c0.4-1,0.6-2.2,0.6-3.7c0-1.5-0.2-2.7-0.6-3.6c-0.4-0.9-0.9-1.5-1.6-1.7
		c-0.4-0.2-1.1-0.3-2.1-0.3h-2.6V95.4z"/>
	<path class="st1" d="M55.1,84.3v-2.1h1.5v2.1H55.1z M55.1,97.2V86.3h1.5v10.9H55.1z"/>
	<path class="st1" d="M60.4,93.9l1.5-0.3c0.1,0.8,0.3,1.3,0.7,1.7c0.4,0.4,0.9,0.6,1.6,0.6s1.2-0.2,1.5-0.5c0.4-0.3,0.5-0.7,0.5-1.2
		c0-0.4-0.2-0.8-0.5-1c-0.2-0.2-0.7-0.4-1.5-0.6c-1.2-0.4-2-0.7-2.4-0.9s-0.7-0.6-0.9-1c-0.2-0.4-0.3-0.9-0.3-1.4
		c0-0.9,0.3-1.7,0.9-2.3S63,86,64,86c0.7,0,1.2,0.1,1.7,0.4c0.5,0.2,0.9,0.6,1.2,1s0.5,1,0.6,1.7L66,89.3c-0.1-1.2-0.8-1.8-1.9-1.8
		c-0.7,0-1.1,0.1-1.5,0.4c-0.3,0.3-0.5,0.6-0.5,1c0,0.4,0.2,0.7,0.5,0.9c0.2,0.1,0.7,0.4,1.6,0.7c1.3,0.4,2.1,0.7,2.4,1
		c0.4,0.2,0.7,0.6,0.9,1c0.2,0.4,0.3,0.9,0.3,1.5c0,1-0.3,1.9-1,2.5c-0.7,0.6-1.6,1-2.7,1C62,97.4,60.7,96.2,60.4,93.9z"/>
	<path class="st1" d="M75.1,95.5l0.2,1.6c-0.4,0.1-0.8,0.2-1.1,0.2c-0.5,0-1-0.1-1.3-0.3c-0.3-0.2-0.5-0.5-0.7-0.9S72,95.1,72,94
		v-6.3h-1.1v-1.4H72v-2.7l1.5-1.1v3.8h1.5v1.4h-1.5v6.4c0,0.6,0,1,0.1,1.1c0.1,0.2,0.4,0.4,0.7,0.4C74.6,95.6,74.8,95.6,75.1,95.5z"
		/>
	<path class="st1" d="M78.6,97.2V86.3h1.4v1.7c0.3-0.8,0.7-1.3,1-1.5c0.3-0.2,0.6-0.4,1-0.4c0.5,0,1,0.2,1.5,0.6l-0.5,1.7
		c-0.4-0.3-0.7-0.4-1.1-0.4c-0.3,0-0.6,0.1-0.9,0.3c-0.3,0.2-0.5,0.5-0.6,0.9c-0.2,0.7-0.3,1.5-0.3,2.2v5.7H78.6z"/>
	<path class="st1" d="M86.4,84.3v-2.1h1.5v2.1H86.4z M86.4,97.2V86.3h1.5v10.9H86.4z"/>
	<path class="st1" d="M93.7,97.2h-1.4v-15h1.5v5.4c0.3-0.5,0.7-0.9,1.1-1.1c0.4-0.2,0.9-0.4,1.4-0.4c0.7,0,1.3,0.2,1.9,0.6
		c0.6,0.4,1,1,1.4,1.9s0.5,1.9,0.5,3.1c0,1.8-0.4,3.3-1.2,4.3c-0.8,1-1.7,1.5-2.7,1.5c-0.5,0-1-0.1-1.4-0.4
		c-0.4-0.3-0.8-0.7-1.1-1.2V97.2z M93.7,91.6c0,1.1,0.1,2,0.3,2.5s0.5,1,0.9,1.3c0.4,0.3,0.8,0.4,1.3,0.4c0.6,0,1.2-0.4,1.7-1.1
		c0.5-0.7,0.7-1.7,0.7-3.1c0-1.4-0.2-2.5-0.7-3.1c-0.5-0.7-1-1-1.7-1c-0.6,0-1.2,0.4-1.7,1.1C93.9,89.3,93.7,90.3,93.7,91.6z"/>
	<path class="st1" d="M109.9,97.2v-1.6c-0.3,0.6-0.8,1.1-1.2,1.4c-0.5,0.3-1,0.5-1.6,0.5c-0.7,0-1.3-0.2-1.8-0.6
		c-0.5-0.4-0.8-0.9-1-1.4c-0.2-0.6-0.3-1.4-0.3-2.4v-6.7h1.5v6c0,1.1,0.1,1.9,0.2,2.3c0.1,0.4,0.3,0.7,0.6,0.9
		c0.3,0.2,0.7,0.3,1,0.3c0.7,0,1.3-0.3,1.8-0.9c0.4-0.5,0.6-1.5,0.6-2.8v-5.8h1.5v10.9H109.9z"/>
	<path class="st1" d="M115.7,84.3v-2.1h1.5v2.1H115.7z M115.7,97.2V86.3h1.5v10.9H115.7z"/>
	<path class="st1" d="M127.4,97.2v-1.4c-0.3,0.5-0.6,0.9-1.1,1.2c-0.4,0.3-0.9,0.4-1.4,0.4c-1.1,0-2-0.5-2.7-1.5
		c-0.8-1-1.2-2.4-1.2-4.2c0-1.2,0.2-2.3,0.5-3.1s0.8-1.5,1.4-1.9s1.2-0.6,1.9-0.6c0.5,0,1,0.1,1.4,0.4c0.4,0.3,0.8,0.6,1.1,1.1v-5.4
		h1.5v15H127.4z M122.6,91.7c0,1.4,0.2,2.5,0.7,3.1c0.5,0.7,1.1,1,1.7,1c0.6,0,1.2-0.3,1.7-1c0.5-0.7,0.7-1.6,0.7-3
		c0-1.5-0.2-2.6-0.7-3.3c-0.5-0.7-1.1-1.1-1.8-1.1c-0.6,0-1.2,0.3-1.6,1C122.8,89.2,122.6,90.3,122.6,91.7z"/>
	<path class="st1" d="M132.7,91.7c0-1.9,0.4-3.3,1.2-4.3c0.8-1,1.8-1.4,3-1.4c1.2,0,2.2,0.5,3,1.4c0.8,1,1.2,2.3,1.2,4.1
		c0,2-0.4,3.4-1.2,4.4c-0.8,1-1.8,1.4-3,1.4c-1.2,0-2.2-0.5-3-1.4C133.1,95,132.7,93.6,132.7,91.7z M134.3,91.7
		c0,1.4,0.3,2.5,0.8,3.1c0.5,0.7,1.1,1,1.9,1c0.7,0,1.3-0.3,1.8-1s0.8-1.7,0.8-3.1c0-1.4-0.3-2.4-0.8-3.1c-0.5-0.7-1.1-1-1.9-1
		c-0.7,0-1.3,0.3-1.8,1S134.3,90.3,134.3,91.7z"/>
	<path class="st1" d="M145,97.2V86.3h1.4v1.7c0.3-0.8,0.7-1.3,1-1.5c0.3-0.2,0.6-0.4,1-0.4c0.5,0,1,0.2,1.5,0.6l-0.5,1.7
		c-0.4-0.3-0.7-0.4-1.1-0.4c-0.3,0-0.6,0.1-0.9,0.3c-0.3,0.2-0.5,0.5-0.6,0.9c-0.2,0.7-0.3,1.5-0.3,2.2v5.7H145z"/>
	<path class="st1" d="M158.6,95.8c-0.5,0.5-1,0.9-1.6,1.2c-0.5,0.3-1.1,0.4-1.7,0.4c-0.9,0-1.7-0.3-2.2-0.8
		c-0.6-0.6-0.8-1.3-0.8-2.3c0-0.6,0.1-1.2,0.4-1.7s0.6-0.9,1.1-1.1s1.1-0.5,2.1-0.6c1.2-0.2,2.1-0.4,2.7-0.6l0-0.5
		c0-0.7-0.1-1.3-0.4-1.6c-0.4-0.4-1-0.7-1.7-0.7c-0.7,0-1.2,0.1-1.6,0.4c-0.3,0.3-0.6,0.8-0.8,1.6l-1.5-0.2c0.2-1.2,0.6-2,1.3-2.6
		c0.6-0.5,1.6-0.8,2.8-0.8c0.9,0,1.7,0.2,2.2,0.5c0.5,0.4,0.9,0.8,1,1.3c0.1,0.5,0.2,1.3,0.2,2.3v2.5c0,1.7,0,2.8,0.1,3.3
		c0.1,0.4,0.2,0.9,0.4,1.3h-1.6C158.8,96.8,158.7,96.3,158.6,95.8z M158.5,91.7c-0.6,0.3-1.4,0.5-2.5,0.7c-0.6,0.1-1.1,0.2-1.3,0.4
		c-0.3,0.1-0.4,0.3-0.6,0.6c-0.1,0.3-0.2,0.6-0.2,0.9c0,0.5,0.2,0.9,0.5,1.2c0.3,0.3,0.8,0.5,1.3,0.5c0.5,0,1-0.1,1.5-0.4
		c0.4-0.3,0.8-0.7,1-1.1c0.2-0.5,0.3-1.1,0.3-2V91.7z"/>
	<path class="st1" d="M170.7,92.9l1.5-0.2c0,1.1,0.2,1.9,0.5,2.4s0.7,0.6,1.3,0.6c0.4,0,0.7-0.1,1-0.3c0.3-0.2,0.5-0.5,0.6-0.8
		c0.1-0.4,0.2-1.1,0.2-2V82.1h1.6v10.2c0,1.8-0.3,3.1-0.9,3.9c-0.6,0.8-1.5,1.1-2.6,1.1c-1.1,0-1.9-0.3-2.4-1
		C171,95.6,170.7,94.5,170.7,92.9z"/>
	<path class="st1" d="M188.2,93.7l1.6,0.2c-0.3,1.2-0.7,2-1.4,2.6c-0.7,0.6-1.5,0.9-2.5,0.9c-1.3,0-2.3-0.5-3.1-1.4
		c-0.8-1-1.2-2.3-1.2-4.2c0-1.9,0.4-3.3,1.2-4.3c0.8-1,1.8-1.5,3-1.5c1.2,0,2.1,0.5,2.9,1.5s1.2,2.4,1.2,4.2l0,0.5h-6.7
		c0.1,1.2,0.3,2.1,0.9,2.8c0.5,0.6,1.1,0.9,1.8,0.9C187,95.9,187.7,95.2,188.2,93.7z M183.2,90.7h5c-0.1-0.9-0.3-1.6-0.6-2.1
		c-0.5-0.7-1.1-1-1.9-1c-0.7,0-1.3,0.3-1.7,0.8C183.5,89,183.3,89.7,183.2,90.7z"/>
	<path class="st1" d="M199.6,95.8c-0.5,0.5-1,0.9-1.6,1.2c-0.5,0.3-1.1,0.4-1.7,0.4c-0.9,0-1.7-0.3-2.2-0.8
		c-0.6-0.6-0.8-1.3-0.8-2.3c0-0.6,0.1-1.2,0.4-1.7s0.6-0.9,1.1-1.1s1.1-0.5,2.1-0.6c1.2-0.2,2.1-0.4,2.7-0.6l0-0.5
		c0-0.7-0.1-1.3-0.4-1.6c-0.4-0.4-1-0.7-1.7-0.7c-0.7,0-1.2,0.1-1.6,0.4c-0.3,0.3-0.6,0.8-0.8,1.6l-1.5-0.2c0.2-1.2,0.6-2,1.3-2.6
		c0.6-0.5,1.6-0.8,2.8-0.8c0.9,0,1.7,0.2,2.2,0.5c0.5,0.4,0.9,0.8,1,1.3c0.1,0.5,0.2,1.3,0.2,2.3v2.5c0,1.7,0,2.8,0.1,3.3
		c0.1,0.4,0.2,0.9,0.4,1.3h-1.6C199.7,96.8,199.6,96.3,199.6,95.8z M199.5,91.7c-0.6,0.3-1.4,0.5-2.5,0.7c-0.6,0.1-1.1,0.2-1.3,0.4
		c-0.3,0.1-0.4,0.3-0.6,0.6c-0.1,0.3-0.2,0.6-0.2,0.9c0,0.5,0.2,0.9,0.5,1.2c0.3,0.3,0.8,0.5,1.3,0.5c0.5,0,1-0.1,1.5-0.4
		c0.4-0.3,0.8-0.7,1-1.1c0.2-0.5,0.3-1.1,0.3-2V91.7z"/>
	<path class="st1" d="M205.4,97.2V86.3h1.4v1.5c0.3-0.6,0.7-1,1.2-1.3c0.5-0.3,1-0.4,1.6-0.4c0.5,0,0.9,0.1,1.3,0.3
		c0.4,0.2,0.7,0.4,1,0.7c0.2,0.3,0.4,0.7,0.6,1.2c0.1,0.5,0.2,1.2,0.2,2.2v6.7h-1.5v-6.6c0-0.8-0.1-1.4-0.2-1.8
		c-0.1-0.4-0.3-0.7-0.6-0.9c-0.3-0.2-0.6-0.3-1-0.3c-0.7,0-1.3,0.3-1.7,0.8c-0.4,0.5-0.6,1.5-0.6,2.8v6H205.4z"/>
	<path class="st1" d="M224.2,97.2v-15h4.6c1.1,0,1.9,0.1,2.4,0.3c0.7,0.3,1.3,0.7,1.7,1.4s0.6,1.6,0.6,2.6c0,1.4-0.3,2.5-1,3.3
		s-1.9,1.3-3.6,1.3h-3.2v6.1H224.2z M225.8,89.3h3.2c1,0,1.7-0.2,2.2-0.7c0.5-0.5,0.7-1.1,0.7-2.1c0-0.6-0.1-1.1-0.3-1.5
		c-0.2-0.4-0.5-0.7-0.8-0.9c-0.3-0.2-0.9-0.2-1.8-0.2h-3.2V89.3z"/>
	<path class="st1" d="M243.4,95.8c-0.5,0.5-1,0.9-1.6,1.2c-0.5,0.3-1.1,0.4-1.7,0.4c-0.9,0-1.7-0.3-2.2-0.8
		c-0.6-0.6-0.8-1.3-0.8-2.3c0-0.6,0.1-1.2,0.4-1.7s0.6-0.9,1.1-1.1s1.1-0.5,2.1-0.6c1.2-0.2,2.1-0.4,2.7-0.6l0-0.5
		c0-0.7-0.1-1.3-0.4-1.6c-0.4-0.4-1-0.7-1.7-0.7c-0.7,0-1.2,0.1-1.6,0.4c-0.3,0.3-0.6,0.8-0.8,1.6l-1.5-0.2c0.2-1.2,0.6-2,1.3-2.6
		c0.6-0.5,1.6-0.8,2.8-0.8c0.9,0,1.7,0.2,2.2,0.5c0.5,0.4,0.9,0.8,1,1.3c0.1,0.5,0.2,1.3,0.2,2.3v2.5c0,1.7,0,2.8,0.1,3.3
		c0.1,0.4,0.2,0.9,0.4,1.3h-1.6C243.6,96.8,243.5,96.3,243.4,95.8z M243.3,91.7c-0.6,0.3-1.4,0.5-2.5,0.7c-0.6,0.1-1.1,0.2-1.3,0.4
		c-0.3,0.1-0.4,0.3-0.6,0.6c-0.1,0.3-0.2,0.6-0.2,0.9c0,0.5,0.2,0.9,0.5,1.2c0.3,0.3,0.8,0.5,1.3,0.5c0.5,0,1-0.1,1.5-0.4
		c0.4-0.3,0.8-0.7,1-1.1c0.2-0.5,0.3-1.1,0.3-2V91.7z"/>
	<path class="st1" d="M255.1,97.2v-1.6c-0.3,0.6-0.8,1.1-1.2,1.4c-0.5,0.3-1,0.5-1.6,0.5c-0.7,0-1.3-0.2-1.8-0.6
		c-0.5-0.4-0.8-0.9-1-1.4c-0.2-0.6-0.3-1.4-0.3-2.4v-6.7h1.5v6c0,1.1,0.1,1.9,0.2,2.3c0.1,0.4,0.3,0.7,0.6,0.9
		c0.3,0.2,0.7,0.3,1,0.3c0.7,0,1.3-0.3,1.8-0.9c0.4-0.5,0.6-1.5,0.6-2.8v-5.8h1.5v10.9H255.1z"/>
	<path class="st1" d="M260.9,97.2v-15h1.5v15H260.9z"/>
</g>
</svg>
