<?xml version="1.0" encoding="utf-8"?>
<!-- Generator: Adobe Illustrator 22.0.0, SVG Export Plug-In . SVG Version: 6.00 Build 0)  -->
<svg version="1.1" id="Layer_1" xmlns="http://www.w3.org/2000/svg" xmlns:xlink="http://www.w3.org/1999/xlink" x="0px" y="0px"
	 viewBox="0 0 300 100" style="enable-background:new 0 0 300 100;" xml:space="preserve">
<style type="text/css">
	.st0{fill:#666666;}
</style>
<g>
	<polygon class="st0" points="43,12.9 51.3,12.9 51.3,19.1 57.5,19.1 57.5,27.4 51.3,27.4 51.3,33.6 43,33.6 43,27.4 36.8,27.4 
		36.8,19.1 43,19.1 	"/>
	<g>
		<g>
			<path class="st0" d="M36.7,45.5c0,0-5.8,0-5.8,0c-2.5,0-4.5,2-4.5,4.6c0,0.2,0,13.3,0,13.3c0,1.1,0.9,1.9,1.9,1.9
				s1.9-0.9,1.9-1.9c0,0,0-11.7,0-11.7c0-0.1,0.1-0.2,0.2-0.2h0.4c0.1,0,0.2,0.1,0.2,0.2c0,0,0,32.8,0,32.8c0,1.4,1.1,2.5,2.5,2.5
				c1.4,0,2.5-1.1,2.5-2.5c0,0,0-19.3,0-19.3c0-0.1,0.1-0.2,0.2-0.2h0.4c0.1,0,0.2,0.1,0.2,0.2c0,0,0,19.3,0,19.3
				c0,1.4,1.1,2.5,2.5,2.5c1.4,0,2.5-1.1,2.5-2.5c0,0,0-32.8,0-32.8c0-0.1,0.1-0.2,0.2-0.2h0.4c0.1,0,0.2,0.1,0.2,0.2
				c0,0,2,10.9,2,10.9c0,1.1,0.6,1.6,1.6,1.6c1.1,0,1.6-0.6,1.6-1.6c0,0-1.5-12.3-1.5-12.5c0-2.6-2-4.6-4.5-4.6
				C41.7,45.5,38.3,45.5,36.7,45.5z"/>
			<ellipse transform="matrix(0.229 -0.9734 0.9734 0.229 -11.6548 66.7491)" class="st0" cx="36.3" cy="40.7" rx="3.7" ry="3.7"/>
		</g>
		<g>
			<path class="st0" d="M17.8,55.1c0,0-4.4,0-4.5,0c-1.9,0-3.5,1.5-3.5,3.6c0,0.1,0,10.2,0,10.2c0,0.8,0.7,1.5,1.5,1.5
				c0.8,0,1.5-0.7,1.5-1.5c0,0,0-9,0-9c0-0.1,0.1-0.2,0.2-0.2h0.3c0.1,0,0.2,0.1,0.2,0.2c0,0,0,25.2,0,25.2c0,1,0.8,1.9,1.9,1.9
				c1,0,1.9-0.8,1.9-1.9c0,0,0-14.8,0-14.8c0-0.1,0.1-0.2,0.2-0.2h0.3c0.1,0,0.2,0,0.2,0.2c0,0,0,14.8,0,14.8c0,1,0.8,1.9,1.9,1.9
				c1,0,1.9-0.8,1.9-1.9c0,0,0-25.2,0-25.2c0-0.1,0.1-0.2,0.2-0.2h0.3c0.1,0,0.2,0.1,0.2,0.2c0,0,1.6,8.4,1.6,8.4
				c0,0.8,0.5,1.3,1.3,1.3c0.8,0,1.3-0.5,1.3-1.3c0,0-1.1-9.5-1.1-9.6c0-2-1.5-3.6-3.5-3.6C21.7,55.1,19.1,55.1,17.8,55.1z"/>
			<ellipse transform="matrix(0.229 -0.9734 0.9734 0.229 -36.5341 56.6916)" class="st0" cx="17.5" cy="51.4" rx="2.8" ry="2.8"/>
		</g>
		<g>
			<path class="st0" d="M47.4,63.3c1,0.3,2-0.2,2.3-1.2c0,0,2.7-8.8,2.7-8.8c0,0,0.1-0.2,0.3-0.2c0,0,0.4,0,0.4,0h0
				c0.1,0,0.2,0.1,0.1,0.2l-5.4,17.7c0,0.1,0,0.3,0.2,0.3h3.8c0.1,0,0.2,0.1,0.2,0.2c0,0,0,12.9,0,12.9c0,1.3,1,2.3,2.3,2.3
				s2.3-1,2.3-2.3l0-12.9c0-0.1,0.1-0.2,0.2-0.2h0h0.4h0c0.1,0,0.2,0.1,0.2,0.2l0,12.9c0,1.3,1,2.3,2.3,2.3c1.3,0,2.3-1,2.3-2.3
				c0,0,0-12.9,0-12.9c0-0.1,0.1-0.2,0.2-0.2H66c0.2,0,0.2-0.2,0.2-0.3l-5.4-17.7c0-0.1,0-0.2,0.1-0.2h0c0,0,0.4,0,0.4,0
				c0.2,0,0.3,0.2,0.3,0.2c0,0,2.7,8.8,2.7,8.8c0.3,1,1.3,1.5,2.3,1.2c1-0.3,1.5-1.3,1.2-2.3c0,0-2.7-8.8-2.7-8.8
				c-0.4-1.4-1.2-4.7-4.2-4.7h-7.6c-2.8,0-3.8,3.3-4.2,4.7c0,0-2.7,8.8-2.7,8.8C45.9,62,46.4,63,47.4,63.3z"/>
			<path class="st0" d="M57,39.5c1.9,0,3.5,1.5,3.5,3.5c0,1.9-1.5,3.5-3.5,3.5c-1.9,0-3.5-1.5-3.5-3.5C53.5,41.1,55,39.5,57,39.5z"
				/>
		</g>
		<g>
			<path class="st0" d="M68.4,68.7c0.7,0.2,1.4-0.2,1.6-0.8c0,0,1.9-6.1,1.9-6.1c0,0,0.1-0.1,0.2-0.1c0,0,0.3,0,0.3,0h0
				c0.1,0,0.1,0.1,0.1,0.1l-3.8,12.3c0,0.1,0,0.2,0.1,0.2h2.6c0.1,0,0.1,0.1,0.1,0.1c0,0,0,8.9,0,9c0,0.9,0.7,1.6,1.6,1.6
				c0.9,0,1.6-0.7,1.6-1.6l0-9c0-0.1,0.1-0.1,0.1-0.1h0h0.3h0c0.1,0,0.1,0.1,0.1,0.1l0,9c0,0.9,0.7,1.6,1.6,1.6
				c0.9,0,1.6-0.7,1.6-1.6c0,0,0-9,0-9c0-0.1,0.1-0.1,0.1-0.1h2.6c0.1,0,0.2-0.1,0.1-0.2l-3.8-12.3c0-0.1,0-0.1,0.1-0.1h0
				c0,0,0.3,0,0.3,0c0.1,0,0.2,0.1,0.2,0.1c0,0,1.9,6.1,1.9,6.1c0.2,0.7,0.9,1,1.6,0.8c0.7-0.2,1-0.9,0.8-1.6c0,0-1.9-6.1-1.9-6.1
				c-0.3-1-0.8-3.3-2.9-3.3h-5.3c-2,0-2.7,2.3-3,3.3c0,0-1.9,6.1-1.9,6.1C67.4,67.8,67.8,68.5,68.4,68.7z"/>
			<path class="st0" d="M75.1,52.2c1.3,0,2.4,1.1,2.4,2.4c0,1.3-1.1,2.4-2.4,2.4c-1.3,0-2.4-1.1-2.4-2.4
				C72.7,53.3,73.8,52.2,75.1,52.2z"/>
		</g>
	</g>
</g>
<g>
	<g>
		<path class="st0" d="M101,24.8v16.7h-4.3v-7h-1.3v7H91V24.8h4.3v6h1.3v-6H101z"/>
		<path class="st0" d="M112.6,34.6c0,1.7,0,2.9-0.1,3.6c-0.1,0.7-0.3,1.3-0.7,1.9c-0.4,0.6-1,1-1.7,1.3c-0.7,0.3-1.5,0.5-2.5,0.5
			c-0.9,0-1.7-0.1-2.4-0.4c-0.7-0.3-1.3-0.7-1.7-1.3c-0.4-0.6-0.7-1.2-0.8-1.9c-0.1-0.7-0.1-1.9-0.1-3.6v-2.9c0-1.7,0-2.9,0.1-3.6
			c0.1-0.7,0.3-1.3,0.7-1.9c0.4-0.6,1-1,1.7-1.3c0.7-0.3,1.5-0.5,2.5-0.5c0.9,0,1.7,0.1,2.4,0.4c0.7,0.3,1.3,0.7,1.7,1.3
			c0.4,0.6,0.7,1.2,0.8,1.9c0.1,0.7,0.1,1.9,0.1,3.6V34.6z M108.3,29.1c0-0.8,0-1.3-0.1-1.5s-0.3-0.3-0.5-0.3
			c-0.2,0-0.4,0.1-0.5,0.3c-0.1,0.2-0.2,0.7-0.2,1.6v7.8c0,1,0,1.6,0.1,1.8c0.1,0.2,0.3,0.3,0.6,0.3c0.3,0,0.5-0.1,0.6-0.4
			c0.1-0.3,0.1-0.9,0.1-1.9V29.1z"/>
		<path class="st0" d="M123.4,29.8h-4v-1.2c0-0.6-0.1-0.9-0.2-1.1c-0.1-0.2-0.3-0.2-0.5-0.2c-0.3,0-0.5,0.1-0.6,0.3
			c-0.1,0.2-0.2,0.5-0.2,1c0,0.6,0.1,1,0.2,1.3c0.1,0.3,0.6,0.6,1.2,1c1.9,1.1,3.1,2.1,3.6,2.8c0.5,0.7,0.8,1.9,0.8,3.6
			c0,1.2-0.1,2.1-0.4,2.6c-0.3,0.6-0.8,1-1.6,1.4c-0.8,0.4-1.7,0.6-2.8,0.6c-1.2,0-2.2-0.2-3-0.7c-0.8-0.4-1.4-1-1.6-1.7
			c-0.3-0.7-0.4-1.6-0.4-2.9v-1.1h4v2c0,0.6,0.1,1,0.2,1.2c0.1,0.2,0.3,0.3,0.6,0.3c0.3,0,0.5-0.1,0.6-0.3c0.1-0.2,0.2-0.6,0.2-1
			c0-1-0.1-1.6-0.4-1.9c-0.3-0.3-1-0.8-2-1.5c-1.1-0.7-1.8-1.2-2.1-1.6c-0.4-0.3-0.6-0.8-0.9-1.3c-0.2-0.6-0.3-1.3-0.3-2.2
			c0-1.3,0.2-2.2,0.5-2.8c0.3-0.6,0.9-1.1,1.6-1.4c0.7-0.3,1.6-0.5,2.6-0.5c1.1,0,2.1,0.2,2.9,0.5c0.8,0.4,1.3,0.8,1.6,1.4
			c0.3,0.6,0.4,1.5,0.4,2.8V29.8z"/>
		<path class="st0" d="M125.1,24.8h4.4c1.2,0,2.1,0.1,2.7,0.3c0.6,0.2,1.1,0.5,1.4,0.8c0.3,0.4,0.5,0.8,0.6,1.3s0.2,1.3,0.2,2.3v1.5
			c0,1.1-0.1,1.8-0.3,2.3c-0.2,0.5-0.6,0.9-1.2,1.1c-0.6,0.3-1.4,0.4-2.3,0.4h-1.2v6.7h-4.3V24.8z M129.5,27.6v4.2
			c0.1,0,0.2,0,0.3,0c0.4,0,0.7-0.1,0.8-0.3c0.2-0.2,0.2-0.6,0.2-1.2V29c0-0.6-0.1-0.9-0.3-1.1C130.4,27.7,130,27.6,129.5,27.6z"/>
		<path class="st0" d="M140.1,24.8v16.7h-4.3V24.8H140.1z"/>
		<path class="st0" d="M150.5,24.8v3.3H148v13.3h-4.3V28.1h-2.6v-3.3H150.5z"/>
		<path class="st0" d="M158.2,24.8l2.5,16.7h-4.4l-0.2-3h-1.6l-0.3,3h-4.5l2.2-16.7H158.2z M155.9,35.5c-0.2-1.9-0.4-4.2-0.7-7
			c-0.4,3.2-0.7,5.5-0.8,7H155.9z"/>
		<path class="st0" d="M165.7,24.8v13.3h2.6v3.3h-7V24.8H165.7z"/>
		<path class="st0" d="M173.2,24.8h3.1c2,0,3.4,0.1,4.2,0.2c0.7,0.2,1.3,0.6,1.8,1.2c0.5,0.6,0.7,1.7,0.7,3.1c0,1.3-0.2,2.2-0.5,2.6
			c-0.3,0.4-1,0.7-1.9,0.8c0.9,0.2,1.4,0.5,1.7,0.9c0.3,0.4,0.5,0.7,0.6,1c0.1,0.3,0.1,1.1,0.1,2.5v4.4h-4v-5.5
			c0-0.9-0.1-1.4-0.2-1.7c-0.1-0.2-0.5-0.3-1.1-0.3v7.5h-4.3V24.8z M177.5,27.6v3.7c0.5,0,0.8-0.1,1-0.2c0.2-0.1,0.3-0.6,0.3-1.3
			v-0.9c0-0.5-0.1-0.9-0.3-1C178.3,27.7,178,27.6,177.5,27.6z"/>
		<path class="st0" d="M184.5,24.8h7.2v3.3h-2.9v3.2h2.7v3.2h-2.7v3.7h3.2v3.3h-7.5V24.8z"/>
		<path class="st0" d="M200.5,24.8v3.3l-3.2,10h3.2v3.3h-8V39l3.3-10.9h-2.9v-3.3H200.5z"/>
		<path class="st0" d="M211.6,34.6c0,1.7,0,2.9-0.1,3.6c-0.1,0.7-0.3,1.3-0.7,1.9c-0.4,0.6-1,1-1.7,1.3c-0.7,0.3-1.5,0.5-2.5,0.5
			c-0.9,0-1.7-0.1-2.4-0.4c-0.7-0.3-1.3-0.7-1.7-1.3c-0.4-0.6-0.7-1.2-0.8-1.9c-0.1-0.7-0.1-1.9-0.1-3.6v-2.9c0-1.7,0-2.9,0.1-3.6
			c0.1-0.7,0.3-1.3,0.7-1.9c0.4-0.6,1-1,1.7-1.3c0.7-0.3,1.5-0.5,2.5-0.5c0.9,0,1.7,0.1,2.4,0.4c0.7,0.3,1.3,0.7,1.7,1.3
			c0.4,0.6,0.7,1.2,0.8,1.9c0.1,0.7,0.1,1.9,0.1,3.6V34.6z M207.2,29.1c0-0.8,0-1.3-0.1-1.5s-0.3-0.3-0.5-0.3
			c-0.2,0-0.4,0.1-0.5,0.3c-0.1,0.2-0.2,0.7-0.2,1.6v7.8c0,1,0,1.6,0.1,1.8c0.1,0.2,0.3,0.3,0.6,0.3c0.3,0,0.5-0.1,0.6-0.4
			c0.1-0.3,0.1-0.9,0.1-1.9V29.1z"/>
		<path class="st0" d="M217.5,24.8v13.3h2.6v3.3h-7V24.8H217.5z"/>
		<path class="st0" d="M229.2,24.8l2.5,16.7h-4.4l-0.2-3h-1.6l-0.3,3h-4.5l2.2-16.7H229.2z M226.9,35.5c-0.2-1.9-0.4-4.2-0.7-7
			c-0.4,3.2-0.7,5.5-0.8,7H226.9z"/>
		<path class="st0" d="M246.3,32H242v-2.9c0-0.8,0-1.4-0.1-1.6c-0.1-0.2-0.3-0.3-0.6-0.3c-0.4,0-0.6,0.1-0.7,0.4
			c-0.1,0.3-0.1,0.8-0.1,1.6V37c0,0.8,0,1.3,0.1,1.6c0.1,0.2,0.3,0.4,0.6,0.4c0.3,0,0.5-0.1,0.6-0.4c0.1-0.2,0.2-0.8,0.2-1.7v-2.1
			h4.3v0.7c0,1.7-0.1,3-0.4,3.7c-0.2,0.7-0.8,1.4-1.6,1.9c-0.8,0.5-1.9,0.8-3.1,0.8c-1.3,0-2.3-0.2-3.1-0.7
			c-0.8-0.5-1.4-1.1-1.6-1.9c-0.3-0.8-0.4-2-0.4-3.7v-4.9c0-1.2,0-2.1,0.1-2.7c0.1-0.6,0.3-1.2,0.7-1.7c0.4-0.6,1-1,1.7-1.3
			c0.7-0.3,1.6-0.5,2.5-0.5c1.3,0,2.3,0.2,3.2,0.7c0.8,0.5,1.4,1.1,1.6,1.8c0.3,0.7,0.4,1.9,0.4,3.4V32z"/>
		<path class="st0" d="M255.4,24.8l2.5,16.7h-4.4l-0.2-3h-1.6l-0.3,3h-4.5l2.2-16.7H255.4z M253.1,35.5c-0.2-1.9-0.4-4.2-0.7-7
			c-0.4,3.2-0.7,5.5-0.8,7H253.1z"/>
		<path class="st0" d="M268.3,24.8v16.7h-3.8l-2.3-7.6v7.6h-3.6V24.8h3.6l2.4,7.5v-7.5H268.3z M267.8,22.3c-0.3,0.7-0.7,1.2-1.2,1.5
			c-0.5,0.3-0.9,0.4-1.2,0.4c-0.5,0-1-0.1-1.6-0.3l-0.8-0.3c-0.5-0.2-0.9-0.3-1.1-0.3c-0.5,0-0.9,0.3-1.3,1l-1.6-1.1
			c0.8-1.3,1.6-2,2.6-2c0.5,0,1,0.1,1.6,0.3l0.6,0.2c0.5,0.2,0.9,0.3,1.1,0.3c0.6,0,0.9-0.3,1.1-0.9L267.8,22.3z"/>
		<path class="st0" d="M270,24.8h7.2v3.3h-2.9v3.2h2.7v3.2h-2.7v3.7h3.2v3.3H270V24.8z"/>
		<path class="st0" d="M287.2,24.8v3.3h-2.6v13.3h-4.3V28.1h-2.6v-3.3H287.2z"/>
		<path class="st0" d="M288.2,24.8h7.2v3.3h-2.9v3.2h2.7v3.2h-2.7v3.7h3.2v3.3h-7.5V24.8z"/>
	</g>
	<rect x="90.6" y="49.8" class="st0" width="205" height="6"/>
	<g>
		<path class="st0" d="M102.2,69.5h-3.7v-1.3c0-0.8,0-1.3-0.1-1.5c-0.1-0.2-0.2-0.3-0.5-0.3c-0.2,0-0.4,0.1-0.5,0.3
			c-0.1,0.2-0.1,0.6-0.1,1.4v6.8c0,0.6,0,1.1,0.1,1.3c0.1,0.2,0.2,0.3,0.5,0.3c0.3,0,0.5-0.1,0.5-0.3c0.1-0.2,0.1-0.7,0.1-1.3V73
			h-0.7v-2.2h4.3v7.6h-2.3l-0.3-1c-0.3,0.4-0.6,0.8-1,1c-0.4,0.2-0.8,0.3-1.4,0.3c-0.6,0-1.2-0.2-1.7-0.5c-0.5-0.3-1-0.7-1.2-1.1
			c-0.3-0.4-0.5-0.9-0.5-1.4c-0.1-0.5-0.1-1.2-0.1-2.2v-4.2c0-1.4,0.1-2.3,0.2-3c0.1-0.6,0.6-1.2,1.3-1.7s1.6-0.8,2.7-0.8
			c1.1,0,2,0.2,2.7,0.7c0.7,0.4,1.2,1,1.4,1.6c0.2,0.6,0.3,1.5,0.3,2.7V69.5z"/>
		<path class="st0" d="M112.1,72.6c0,1.4,0,2.4-0.1,3c-0.1,0.6-0.3,1.1-0.6,1.6c-0.4,0.5-0.8,0.9-1.4,1.1c-0.6,0.3-1.3,0.4-2.1,0.4
			c-0.8,0-1.4-0.1-2-0.4c-0.6-0.2-1.1-0.6-1.5-1.1c-0.4-0.5-0.6-1-0.7-1.6c-0.1-0.6-0.1-1.6-0.1-3.1v-2.4c0-1.4,0-2.4,0.1-3
			c0.1-0.6,0.3-1.1,0.6-1.6c0.4-0.5,0.8-0.9,1.4-1.1c0.6-0.3,1.3-0.4,2.1-0.4c0.8,0,1.4,0.1,2,0.4c0.6,0.2,1.1,0.6,1.5,1.1
			c0.4,0.5,0.6,1,0.7,1.6c0.1,0.6,0.1,1.6,0.1,3.1V72.6z M108.4,67.9c0-0.7,0-1.1-0.1-1.3s-0.2-0.3-0.5-0.3c-0.2,0-0.3,0.1-0.4,0.2
			c-0.1,0.1-0.2,0.6-0.2,1.3v6.6c0,0.8,0,1.3,0.1,1.5c0.1,0.2,0.2,0.3,0.5,0.3c0.3,0,0.4-0.1,0.5-0.3c0.1-0.2,0.1-0.8,0.1-1.6V67.9z
			"/>
		<path class="st0" d="M113.4,64.3h3.7c1.2,0,2,0.1,2.6,0.3c0.6,0.2,1.1,0.5,1.5,1.1c0.4,0.6,0.6,1.4,0.6,2.7c0,0.8-0.1,1.4-0.4,1.7
			c-0.3,0.3-0.8,0.6-1.5,0.8c0.9,0.2,1.4,0.5,1.7,1c0.3,0.4,0.5,1.1,0.5,2.1v1.3c0,1-0.1,1.7-0.3,2.1c-0.2,0.5-0.6,0.8-1,0.9
			c-0.5,0.2-1.5,0.3-2.9,0.3h-4.3V64.3z M117.1,66.7v3.2c0.2,0,0.3,0,0.4,0c0.4,0,0.6-0.1,0.7-0.3c0.1-0.2,0.1-0.7,0.1-1.5
			c0-0.4,0-0.8-0.1-0.9c-0.1-0.2-0.2-0.3-0.3-0.3C117.8,66.7,117.5,66.7,117.1,66.7z M117.1,72.1v4c0.5,0,0.9-0.1,1-0.2
			c0.1-0.1,0.2-0.5,0.2-1.1v-1.3c0-0.6-0.1-1-0.2-1.1C118,72.2,117.7,72.1,117.1,72.1z"/>
		<path class="st0" d="M127.1,64.3v14.2h-3.7V64.3H127.1z"/>
		<path class="st0" d="M128.5,64.3h6.2v2.8h-2.5v2.7h2.3v2.7h-2.3v3.1h2.7v2.8h-6.4V64.3z"/>
		<path class="st0" d="M136,64.3h2.6c1.7,0,2.9,0.1,3.5,0.2c0.6,0.1,1.1,0.5,1.5,1c0.4,0.6,0.6,1.4,0.6,2.6c0,1.1-0.1,1.8-0.4,2.2
			c-0.3,0.4-0.8,0.6-1.6,0.7c0.7,0.2,1.2,0.4,1.5,0.7c0.3,0.3,0.4,0.6,0.5,0.8c0.1,0.3,0.1,1,0.1,2.1v3.7h-3.4v-4.7
			c0-0.8-0.1-1.2-0.2-1.4c-0.1-0.2-0.4-0.3-0.9-0.3v6.4H136V64.3z M139.7,66.7v3.2c0.4,0,0.7-0.1,0.9-0.2c0.2-0.1,0.2-0.5,0.2-1.1
			v-0.8c0-0.5-0.1-0.7-0.2-0.9C140.4,66.8,140.1,66.7,139.7,66.7z"/>
		<path class="st0" d="M153.9,64.3v14.2h-3.2l-1.9-6.5v6.5h-3.1V64.3h3.1l2.1,6.4v-6.4H153.9z"/>
		<path class="st0" d="M163.9,72.6c0,1.4,0,2.4-0.1,3c-0.1,0.6-0.3,1.1-0.6,1.6c-0.4,0.5-0.8,0.9-1.4,1.1c-0.6,0.3-1.3,0.4-2.1,0.4
			c-0.8,0-1.4-0.1-2-0.4c-0.6-0.2-1.1-0.6-1.5-1.1c-0.4-0.5-0.6-1-0.7-1.6c-0.1-0.6-0.1-1.6-0.1-3.1v-2.4c0-1.4,0-2.4,0.1-3
			c0.1-0.6,0.3-1.1,0.6-1.6c0.4-0.5,0.8-0.9,1.4-1.1c0.6-0.3,1.3-0.4,2.1-0.4c0.8,0,1.4,0.1,2,0.4c0.6,0.2,1.1,0.6,1.5,1.1
			c0.4,0.5,0.6,1,0.7,1.6c0.1,0.6,0.1,1.6,0.1,3.1V72.6z M160.2,67.9c0-0.7,0-1.1-0.1-1.3s-0.2-0.3-0.5-0.3c-0.2,0-0.3,0.1-0.4,0.2
			c-0.1,0.1-0.2,0.6-0.2,1.3v6.6c0,0.8,0,1.3,0.1,1.5c0.1,0.2,0.2,0.3,0.5,0.3c0.3,0,0.4-0.1,0.5-0.3c0.1-0.2,0.1-0.8,0.1-1.6V67.9z
			"/>
		<path class="st0" d="M168.4,64.3h2.6c1.7,0,2.9,0.1,3.5,0.2c0.6,0.1,1.1,0.5,1.5,1c0.4,0.6,0.6,1.4,0.6,2.6c0,1.1-0.1,1.8-0.4,2.2
			c-0.3,0.4-0.8,0.6-1.6,0.7c0.7,0.2,1.2,0.4,1.5,0.7c0.3,0.3,0.4,0.6,0.5,0.8c0.1,0.3,0.1,1,0.1,2.1v3.7h-3.4v-4.7
			c0-0.8-0.1-1.2-0.2-1.4c-0.1-0.2-0.4-0.3-0.9-0.3v6.4h-3.7V64.3z M172.1,66.7v3.2c0.4,0,0.7-0.1,0.9-0.2c0.2-0.1,0.2-0.5,0.2-1.1
			v-0.8c0-0.5-0.1-0.7-0.2-0.9C172.8,66.8,172.5,66.7,172.1,66.7z"/>
		<path class="st0" d="M178.1,64.3h6.2v2.8h-2.5v2.7h2.3v2.7h-2.3v3.1h2.7v2.8h-6.4V64.3z"/>
		<path class="st0" d="M194,69.5h-3.7v-1.3c0-0.8,0-1.3-0.1-1.5c-0.1-0.2-0.2-0.3-0.5-0.3c-0.2,0-0.4,0.1-0.5,0.3
			c-0.1,0.2-0.1,0.6-0.1,1.4v6.8c0,0.6,0,1.1,0.1,1.3c0.1,0.2,0.2,0.3,0.5,0.3c0.3,0,0.5-0.1,0.5-0.3s0.1-0.7,0.1-1.3V73h-0.7v-2.2
			h4.3v7.6h-2.3l-0.3-1c-0.3,0.4-0.6,0.8-1,1c-0.4,0.2-0.8,0.3-1.4,0.3c-0.6,0-1.2-0.2-1.7-0.5c-0.5-0.3-1-0.7-1.2-1.1
			c-0.3-0.4-0.5-0.9-0.5-1.4c-0.1-0.5-0.1-1.2-0.1-2.2v-4.2c0-1.4,0.1-2.3,0.2-3c0.1-0.6,0.6-1.2,1.3-1.7c0.7-0.5,1.6-0.8,2.7-0.8
			c1.1,0,2,0.2,2.7,0.7c0.7,0.4,1.2,1,1.4,1.6c0.2,0.6,0.3,1.5,0.3,2.7V69.5z"/>
		<path class="st0" d="M199.1,64.3v14.2h-3.7V64.3H199.1z"/>
		<path class="st0" d="M209.1,72.6c0,1.4,0,2.4-0.1,3c-0.1,0.6-0.3,1.1-0.6,1.6c-0.4,0.5-0.8,0.9-1.4,1.1c-0.6,0.3-1.3,0.4-2.1,0.4
			c-0.8,0-1.4-0.1-2-0.4c-0.6-0.2-1.1-0.6-1.5-1.1c-0.4-0.5-0.6-1-0.7-1.6c-0.1-0.6-0.1-1.6-0.1-3.1v-2.4c0-1.4,0-2.4,0.1-3
			c0.1-0.6,0.3-1.1,0.6-1.6c0.4-0.5,0.8-0.9,1.4-1.1c0.6-0.3,1.3-0.4,2.1-0.4c0.8,0,1.4,0.1,2,0.4c0.6,0.2,1.1,0.6,1.5,1.1
			c0.4,0.5,0.6,1,0.7,1.6c0.1,0.6,0.1,1.6,0.1,3.1V72.6z M205.4,67.9c0-0.7,0-1.1-0.1-1.3c-0.1-0.2-0.2-0.3-0.5-0.3
			c-0.2,0-0.3,0.1-0.4,0.2c-0.1,0.1-0.2,0.6-0.2,1.3v6.6c0,0.8,0,1.3,0.1,1.5c0.1,0.2,0.2,0.3,0.5,0.3c0.3,0,0.4-0.1,0.5-0.3
			c0.1-0.2,0.1-0.8,0.1-1.6V67.9z"/>
		<path class="st0" d="M218.7,64.3v14.2h-3.2l-1.9-6.5v6.5h-3.1V64.3h3.1l2.1,6.4v-6.4H218.7z"/>
		<path class="st0" d="M226.6,64.3l2.1,14.2h-3.8l-0.2-2.6h-1.3l-0.2,2.6h-3.8l1.9-14.2H226.6z M224.6,73.4c-0.2-1.6-0.4-3.6-0.6-6
			c-0.4,2.7-0.6,4.7-0.7,6H224.6z"/>
		<path class="st0" d="M233,64.3v11.4h2.2v2.8h-5.9V64.3H233z"/>
		<path class="st0" d="M239.3,64.3h2.8c1.8,0,3,0.1,3.6,0.2c0.6,0.2,1.1,0.4,1.4,0.8s0.5,0.8,0.6,1.3c0.1,0.5,0.1,1.4,0.1,2.7v5
			c0,1.3-0.1,2.1-0.2,2.6c-0.1,0.4-0.3,0.8-0.6,1c-0.3,0.2-0.7,0.4-1.1,0.5c-0.4,0.1-1.1,0.1-2,0.1h-4.7V64.3z M243,66.7v9.3
			c0.5,0,0.9-0.1,1-0.3c0.1-0.2,0.2-0.8,0.2-1.7v-5.5c0-0.6,0-1.1-0.1-1.2s-0.1-0.3-0.3-0.4C243.7,66.7,243.4,66.7,243,66.7z"/>
		<path class="st0" d="M249.2,64.3h6.2v2.8h-2.5v2.7h2.3v2.7h-2.3v3.1h2.7v2.8h-6.4V64.3z"/>
		<path class="st0" d="M263.6,64.3v11.4h2.2v2.8h-5.9V64.3H263.6z"/>
		<path class="st0" d="M270.4,64.3v14.2h-3.7V64.3H270.4z"/>
		<path class="st0" d="M283.3,64.3v14.2h-3.2l0-9.6l-1.3,9.6h-2.3l-1.4-9.4l0,9.4h-3.2V64.3h4.8c0.1,0.9,0.3,1.9,0.4,3l0.5,3.6
			l0.8-6.6H283.3z"/>
		<path class="st0" d="M291.2,64.3l2.1,14.2h-3.8l-0.2-2.6H288l-0.2,2.6h-3.8l1.9-14.2H291.2z M289.2,73.4c-0.2-1.6-0.4-3.6-0.6-6
			c-0.4,2.7-0.6,4.7-0.7,6H289.2z"/>
	</g>
</g>
</svg>
