<?xml version="1.0" encoding="utf-8"?>
<!-- Generator: Adobe Illustrator 22.0.0, SVG Export Plug-In . SVG Version: 6.00 Build 0)  -->
<svg version="1.1" id="Layer_1" xmlns="http://www.w3.org/2000/svg" xmlns:xlink="http://www.w3.org/1999/xlink" x="0px" y="0px"
	 viewBox="0 0 300 100" style="enable-background:new 0 0 300 100;" xml:space="preserve">
<style type="text/css">
	.st0{fill:none;stroke:#666666;stroke-miterlimit:10;}
	.st1{fill:#666666;}
</style>
<g>
	<polygon class="st0" points="14.1,14.9 78.9,14.9 78.9,24 88,24 88,76.3 78.9,76.3 78.9,85.4 14.1,85.4 14.1,76.3 3.9,76.3 3.9,24 
		14.1,24 	"/>
	
		<rect x="7.9" y="24.6" transform="matrix(-1 -1.224647e-16 1.224647e-16 -1 17.9952 100.331)" class="st1" width="2.3" height="51.2"/>
	
		<rect x="81.7" y="24.6" transform="matrix(-1 -1.224647e-16 1.224647e-16 -1 165.7695 100.331)" class="st1" width="2.3" height="51.2"/>
	
		<rect x="45.4" y="-12.9" transform="matrix(-1.836970e-16 1 -1 -1.836970e-16 65.4151 -27.604)" class="st1" width="2.3" height="63.7"/>
	
		<rect x="45.4" y="48.5" transform="matrix(-1.836970e-16 1 -1 -1.836970e-16 126.7983 33.7792)" class="st1" width="2.3" height="63.7"/>
	<g>
		<g>
			<path class="st1" d="M28.7,39.4V45h-0.6c-0.7-3.4-2.4-5.1-5.1-5.1c-1.5,0-2.6,0.6-3.2,1.7c-0.7,1.2-1,3.6-1,7.3
				c0,3.1,0.1,5.2,0.4,6.3c0.3,1.1,0.8,1.9,1.5,2.4c0.7,0.5,1.5,0.7,2.4,0.7c1.1,0,2.2-0.4,3.2-1.3s1.8-2.2,2.3-4.1h0.7L29,58.7
				h-0.6c-0.2-0.6-0.6-1.1-1-1.5c-1.5,1.2-3,1.9-4.6,1.9c-2,0-3.8-0.9-5.5-2.8c-1.7-1.9-2.5-4.2-2.5-7c0-2.8,0.8-5.2,2.4-7.1
				c1.6-1.9,3.5-2.9,5.6-2.9c1.6,0,3.1,0.6,4.3,1.8c0.4-0.6,0.6-1.1,0.8-1.5H28.7z"/>
			<path class="st1" d="M34.9,57.9V40.3h-3v-0.7h9.4v0.7h-3v8.1h8.2v-8.1h-3v-0.7h9.3v0.7h-3v17.5h3v0.7h-9.3v-0.7h3v-8.7h-8.2v8.7
				h3v0.7h-9.4v-0.7H34.9z"/>
			<path class="st1" d="M55.4,39.6h6.8L66.3,53h0.1l4.1-13.4h6.6v0.7h-2.8v17.5h2.8v0.7h-8.9v-0.7H71V40H71l-5.6,18.6h-0.7L59,40H59
				v17.9h2.9v0.7h-6.5v-0.7h2.8V40.3h-2.8V39.6z"/>
		</g>
		<g>
			<path class="st1" d="M15.1,26.9H16c0.6,0,0.9,0,1.1,0.1c0.2,0.1,0.3,0.1,0.5,0.3c0.1,0.1,0.2,0.3,0.2,0.4c0,0.1,0,0.4,0,0.9v1.6
				c0,0.4,0,0.7-0.1,0.8c0,0.1-0.1,0.2-0.2,0.3c-0.1,0.1-0.2,0.1-0.3,0.2c-0.1,0-0.3,0-0.6,0h-1.5V26.9z M16.3,27.7v3
				c0.2,0,0.3,0,0.3-0.1c0-0.1,0.1-0.3,0.1-0.6v-1.7c0-0.2,0-0.3,0-0.4s0-0.1-0.1-0.1C16.5,27.7,16.4,27.7,16.3,27.7z"/>
			<path class="st1" d="M19.4,26.9v4.5h-1.2v-4.5H19.4z"/>
			<path class="st1" d="M19.9,26.9h0.8c0.6,0,0.9,0,1.1,0.1c0.2,0,0.4,0.2,0.5,0.3c0.1,0.2,0.2,0.5,0.2,0.8c0,0.3,0,0.6-0.1,0.7
				c-0.1,0.1-0.3,0.2-0.5,0.2c0.2,0.1,0.4,0.1,0.5,0.2c0.1,0.1,0.1,0.2,0.1,0.3c0,0.1,0,0.3,0,0.7v1.2h-1.1v-1.5
				c0-0.2,0-0.4-0.1-0.4c0-0.1-0.1-0.1-0.3-0.1v2h-1.2V26.9z M21.1,27.7v1c0.1,0,0.2,0,0.3-0.1c0.1,0,0.1-0.2,0.1-0.4V28
				c0-0.1,0-0.2-0.1-0.3C21.3,27.7,21.2,27.7,21.1,27.7z"/>
			<path class="st1" d="M22.9,26.9h1.9v0.9h-0.8v0.9h0.7v0.9h-0.7v1H25v0.9h-2V26.9z"/>
			<path class="st1" d="M28,28.9h-1.2v-0.8c0-0.2,0-0.4,0-0.4c0-0.1-0.1-0.1-0.2-0.1c-0.1,0-0.2,0-0.2,0.1c0,0.1,0,0.2,0,0.4v2.1
				c0,0.2,0,0.4,0,0.4c0,0.1,0.1,0.1,0.2,0.1c0.1,0,0.1,0,0.2-0.1c0-0.1,0-0.2,0-0.5v-0.6H28v0.2c0,0.5,0,0.8-0.1,1
				c-0.1,0.2-0.2,0.4-0.4,0.5c-0.2,0.1-0.5,0.2-0.8,0.2c-0.3,0-0.6-0.1-0.8-0.2c-0.2-0.1-0.4-0.3-0.4-0.5c-0.1-0.2-0.1-0.5-0.1-1
				v-1.3c0-0.3,0-0.6,0-0.7c0-0.2,0.1-0.3,0.2-0.5c0.1-0.1,0.3-0.3,0.5-0.4c0.2-0.1,0.4-0.1,0.7-0.1c0.3,0,0.6,0.1,0.9,0.2
				c0.2,0.1,0.4,0.3,0.4,0.5C28,27.7,28,28,28,28.4V28.9z"/>
			<path class="st1" d="M31.2,28.9H30v-0.8c0-0.2,0-0.4,0-0.4c0-0.1-0.1-0.1-0.2-0.1c-0.1,0-0.2,0-0.2,0.1c0,0.1,0,0.2,0,0.4v2.1
				c0,0.2,0,0.4,0,0.4c0,0.1,0.1,0.1,0.2,0.1c0.1,0,0.1,0,0.2-0.1c0-0.1,0-0.2,0-0.5v-0.6h1.2v0.2c0,0.5,0,0.8-0.1,1
				c-0.1,0.2-0.2,0.4-0.4,0.5c-0.2,0.1-0.5,0.2-0.8,0.2c-0.3,0-0.6-0.1-0.8-0.2c-0.2-0.1-0.4-0.3-0.4-0.5c-0.1-0.2-0.1-0.5-0.1-1
				v-1.3c0-0.3,0-0.6,0-0.7c0-0.2,0.1-0.3,0.2-0.5c0.1-0.1,0.3-0.3,0.5-0.4c0.2-0.1,0.4-0.1,0.7-0.1c0.3,0,0.6,0.1,0.9,0.2
				c0.2,0.1,0.4,0.3,0.4,0.5c0.1,0.2,0.1,0.5,0.1,0.9V28.9z"/>
			<path class="st1" d="M32.8,26.9v4.5h-1.2v-4.5H32.8z"/>
			<path class="st1" d="M35.9,29.5c0,0.5,0,0.8,0,1c0,0.2-0.1,0.4-0.2,0.5c-0.1,0.2-0.3,0.3-0.5,0.4c-0.2,0.1-0.4,0.1-0.7,0.1
				c-0.2,0-0.5,0-0.6-0.1c-0.2-0.1-0.3-0.2-0.5-0.4c-0.1-0.2-0.2-0.3-0.2-0.5s0-0.5,0-1v-0.8c0-0.5,0-0.8,0-1c0-0.2,0.1-0.4,0.2-0.5
				c0.1-0.2,0.3-0.3,0.5-0.4c0.2-0.1,0.4-0.1,0.7-0.1c0.2,0,0.5,0,0.6,0.1c0.2,0.1,0.3,0.2,0.5,0.4c0.1,0.2,0.2,0.3,0.2,0.5
				c0,0.2,0,0.5,0,1V29.5z M34.7,28.1c0-0.2,0-0.3,0-0.4c0-0.1-0.1-0.1-0.1-0.1c-0.1,0-0.1,0-0.1,0.1c0,0,0,0.2,0,0.4v2.1
				c0,0.3,0,0.4,0,0.5c0,0.1,0.1,0.1,0.1,0.1c0.1,0,0.1,0,0.2-0.1c0-0.1,0-0.2,0-0.5V28.1z"/>
			<path class="st1" d="M39,26.9v4.5h-1l-0.6-2v2h-1v-4.5h1l0.7,2v-2H39z"/>
			<path class="st1" d="M40.4,26.9h0.9c0.6,0,0.9,0,1.1,0.1c0.2,0.1,0.3,0.1,0.5,0.3c0.1,0.1,0.2,0.3,0.2,0.4c0,0.1,0,0.4,0,0.9v1.6
				c0,0.4,0,0.7-0.1,0.8c0,0.1-0.1,0.2-0.2,0.3c-0.1,0.1-0.2,0.1-0.3,0.2c-0.1,0-0.3,0-0.6,0h-1.5V26.9z M41.6,27.7v3
				c0.2,0,0.3,0,0.3-0.1c0-0.1,0.1-0.3,0.1-0.6v-1.7c0-0.2,0-0.3,0-0.4c0-0.1,0-0.1-0.1-0.1C41.8,27.7,41.7,27.7,41.6,27.7z"/>
			<path class="st1" d="M43.6,26.9h1.9v0.9h-0.8v0.9h0.7v0.9h-0.7v1h0.9v0.9h-2V26.9z"/>
			<path class="st1" d="M46.9,26.9h0.8c0.6,0,0.9,0,1.1,0.1c0.2,0,0.4,0.2,0.5,0.3c0.1,0.2,0.2,0.5,0.2,0.8c0,0.3,0,0.6-0.1,0.7
				c-0.1,0.1-0.3,0.2-0.5,0.2c0.2,0.1,0.4,0.1,0.5,0.2c0.1,0.1,0.1,0.2,0.1,0.3c0,0.1,0,0.3,0,0.7v1.2h-1.1v-1.5
				c0-0.2,0-0.4-0.1-0.4c0-0.1-0.1-0.1-0.3-0.1v2h-1.2V26.9z M48.1,27.7v1c0.1,0,0.2,0,0.3-0.1c0.1,0,0.1-0.2,0.1-0.4V28
				c0-0.1,0-0.2-0.1-0.3C48.3,27.7,48.2,27.7,48.1,27.7z"/>
			<path class="st1" d="M50,26.9h1.9v0.9h-0.8v0.9h0.7v0.9h-0.7v1H52v0.9h-2V26.9z"/>
			<path class="st1" d="M52.4,26.9h0.9c0.6,0,0.9,0,1.1,0.1c0.2,0.1,0.3,0.1,0.5,0.3c0.1,0.1,0.2,0.3,0.2,0.4c0,0.1,0,0.4,0,0.9v1.6
				c0,0.4,0,0.7-0.1,0.8c0,0.1-0.1,0.2-0.2,0.3c-0.1,0.1-0.2,0.1-0.3,0.2c-0.1,0-0.3,0-0.6,0h-1.5V26.9z M53.5,27.7v3
				c0.2,0,0.3,0,0.3-0.1c0-0.1,0.1-0.3,0.1-0.6v-1.7c0-0.2,0-0.3,0-0.4c0-0.1,0-0.1-0.1-0.1C53.7,27.7,53.7,27.7,53.5,27.7z"/>
			<path class="st1" d="M56.5,26.9h0.9c0.6,0,0.9,0,1.1,0.1c0.2,0.1,0.3,0.1,0.5,0.3c0.1,0.1,0.2,0.3,0.2,0.4c0,0.1,0,0.4,0,0.9v1.6
				c0,0.4,0,0.7-0.1,0.8c0,0.1-0.1,0.2-0.2,0.3c-0.1,0.1-0.2,0.1-0.3,0.2c-0.1,0-0.3,0-0.6,0h-1.5V26.9z M57.7,27.7v3
				c0.2,0,0.3,0,0.3-0.1c0-0.1,0.1-0.3,0.1-0.6v-1.7c0-0.2,0-0.3,0-0.4c0-0.1,0-0.1-0.1-0.1C57.9,27.7,57.8,27.7,57.7,27.7z"/>
			<path class="st1" d="M59.6,26.9h1.9v0.9h-0.8v0.9h0.7v0.9h-0.7v1h0.9v0.9h-2V26.9z"/>
			<path class="st1" d="M65.5,28.3h-1.1v-0.3c0-0.2,0-0.3,0-0.3c0,0-0.1-0.1-0.1-0.1c-0.1,0-0.1,0-0.2,0.1c0,0.1-0.1,0.1-0.1,0.3
				c0,0.2,0,0.3,0.1,0.3c0,0.1,0.1,0.2,0.3,0.3c0.5,0.3,0.8,0.6,1,0.8c0.1,0.2,0.2,0.5,0.2,1c0,0.3,0,0.6-0.1,0.7
				c-0.1,0.2-0.2,0.3-0.4,0.4c-0.2,0.1-0.5,0.2-0.7,0.2c-0.3,0-0.6-0.1-0.8-0.2c-0.2-0.1-0.4-0.3-0.4-0.5c-0.1-0.2-0.1-0.4-0.1-0.8
				v-0.3H64v0.5c0,0.2,0,0.3,0,0.3c0,0,0.1,0.1,0.2,0.1s0.1,0,0.2-0.1c0-0.1,0.1-0.2,0.1-0.3c0-0.3,0-0.4-0.1-0.5
				c-0.1-0.1-0.3-0.2-0.5-0.4c-0.3-0.2-0.5-0.3-0.6-0.4c-0.1-0.1-0.2-0.2-0.2-0.4c-0.1-0.2-0.1-0.3-0.1-0.6c0-0.3,0-0.6,0.1-0.8
				c0.1-0.2,0.2-0.3,0.4-0.4c0.2-0.1,0.4-0.1,0.7-0.1c0.3,0,0.6,0,0.8,0.1c0.2,0.1,0.4,0.2,0.4,0.4c0.1,0.1,0.1,0.4,0.1,0.8V28.3z"
				/>
			<path class="st1" d="M68,26.9l0.7,4.5h-1.2l-0.1-0.8H67l-0.1,0.8h-1.2l0.6-4.5H68z M67.3,29.8c-0.1-0.5-0.1-1.1-0.2-1.9
				c-0.1,0.9-0.2,1.5-0.2,1.9H67.3z"/>
			<path class="st1" d="M70,26.9v3.6h0.7v0.9h-1.9v-4.5H70z"/>
			<path class="st1" d="M73.6,26.9v3c0,0.3,0,0.6,0,0.7c0,0.1-0.1,0.3-0.2,0.4c-0.1,0.1-0.3,0.3-0.4,0.3c-0.2,0.1-0.4,0.1-0.6,0.1
				c-0.3,0-0.5,0-0.7-0.1c-0.2-0.1-0.4-0.2-0.5-0.3c-0.1-0.1-0.2-0.3-0.2-0.5c0-0.2,0-0.5,0-1v-2.7h1.2v3.4c0,0.2,0,0.3,0,0.4
				c0,0.1,0.1,0.1,0.1,0.1c0.1,0,0.1,0,0.1-0.1c0-0.1,0-0.2,0-0.4v-3.3H73.6z"/>
			<path class="st1" d="M74.1,26.9H75c0.6,0,0.9,0,1.1,0.1c0.2,0.1,0.3,0.1,0.5,0.3c0.1,0.1,0.2,0.3,0.2,0.4c0,0.1,0,0.4,0,0.9v1.6
				c0,0.4,0,0.7-0.1,0.8c0,0.1-0.1,0.2-0.2,0.3c-0.1,0.1-0.2,0.1-0.3,0.2c-0.1,0-0.3,0-0.6,0h-1.5V26.9z M75.3,27.7v3
				c0.2,0,0.3,0,0.3-0.1c0-0.1,0.1-0.3,0.1-0.6v-1.7c0-0.2,0-0.3,0-0.4c0-0.1,0-0.1-0.1-0.1C75.5,27.7,75.4,27.7,75.3,27.7z"/>
		</g>
		<g>
			<path class="st1" d="M19.9,66.7v3c0,0.3,0,0.6,0,0.7s-0.1,0.3-0.2,0.4c-0.1,0.1-0.3,0.3-0.4,0.3c-0.2,0.1-0.4,0.1-0.6,0.1
				c-0.3,0-0.5,0-0.7-0.1c-0.2-0.1-0.4-0.2-0.5-0.3c-0.1-0.1-0.2-0.3-0.2-0.5c0-0.2,0-0.5,0-1v-2.7h1.2v3.4c0,0.2,0,0.3,0,0.4
				c0,0.1,0.1,0.1,0.1,0.1c0.1,0,0.1,0,0.1-0.1c0-0.1,0-0.2,0-0.4v-3.3H19.9z"/>
			<path class="st1" d="M21.1,70.3v0.9h-0.8v-0.9H21.1z"/>
			<path class="st1" d="M21.4,66.7h1.9v0.9h-0.8v0.9h0.7v0.9h-0.7v1h0.9v0.9h-2V66.7z"/>
			<path class="st1" d="M24.5,70.3v0.9h-0.8v-0.9H24.5z"/>
			<path class="st1" d="M28.1,66.7v2.9h0.3v0.8h-0.3v0.8H27v-0.8h-1.3v-0.8l1-2.9H28.1z M27,69.6v-1.9l-0.5,1.9H27z"/>
			<path class="st1" d="M31.3,68.2v1.5c0,0.3,0,0.6-0.1,0.7s-0.1,0.3-0.2,0.4c-0.1,0.1-0.3,0.2-0.4,0.3c-0.2,0.1-0.3,0.1-0.6,0.1
				c-0.3,0-0.5,0-0.7-0.1c-0.2-0.1-0.3-0.2-0.4-0.3c-0.1-0.1-0.2-0.3-0.2-0.4c0-0.1-0.1-0.4-0.1-0.7v-1.6c0-0.4,0-0.7,0.1-0.9
				c0.1-0.2,0.2-0.4,0.4-0.5c0.2-0.1,0.5-0.2,0.8-0.2c0.2,0,0.5,0,0.7,0.1c0.2,0.1,0.3,0.2,0.4,0.3c0.1,0.1,0.2,0.3,0.2,0.4
				C31.3,67.6,31.3,67.9,31.3,68.2z M30.2,67.8c0-0.2,0-0.4,0-0.4c0-0.1-0.1-0.1-0.2-0.1c-0.1,0-0.1,0-0.2,0.1c0,0.1,0,0.2,0,0.4V70
				c0,0.3,0,0.4,0,0.5c0,0.1,0.1,0.1,0.2,0.1c0.1,0,0.1,0,0.2-0.1s0-0.2,0-0.4V67.8z"/>
			<path class="st1" d="M34.4,67.9h-1.1c0-0.2,0-0.3,0-0.4c0-0.1,0-0.1-0.1-0.1c0,0-0.1-0.1-0.2-0.1c-0.1,0-0.1,0-0.1,0.1
				c0,0-0.1,0.1-0.1,0.1s0,0.2,0,0.3v0.7c0.1-0.1,0.1-0.2,0.3-0.3c0.1-0.1,0.2-0.1,0.4-0.1c0.2,0,0.4,0.1,0.5,0.2s0.3,0.2,0.3,0.4
				c0,0.2,0.1,0.4,0.1,0.6v0.4c0,0.3,0,0.5,0,0.7c0,0.2-0.1,0.3-0.2,0.4c-0.1,0.1-0.2,0.2-0.4,0.3c-0.2,0.1-0.4,0.1-0.6,0.1
				c-0.3,0-0.5,0-0.7-0.1c-0.2-0.1-0.3-0.2-0.4-0.4c-0.1-0.2-0.2-0.3-0.2-0.5c0-0.2,0-0.5,0-1v-0.6c0-0.5,0-0.9,0-1.1
				c0-0.2,0.1-0.4,0.2-0.5c0.1-0.2,0.3-0.3,0.5-0.4c0.2-0.1,0.4-0.1,0.7-0.1c0.3,0,0.6,0.1,0.8,0.2c0.2,0.1,0.3,0.2,0.4,0.4
				C34.4,67.4,34.4,67.6,34.4,67.9z M33.3,69.3c0-0.2,0-0.3-0.1-0.3c0-0.1-0.1-0.1-0.2-0.1c-0.1,0-0.1,0-0.2,0.1
				c0,0.1-0.1,0.2-0.1,0.3v0.8c0,0.2,0,0.3,0.1,0.4c0,0.1,0.1,0.1,0.2,0.1c0,0,0.1,0,0.1-0.1c0.1,0,0.1-0.2,0.1-0.4V69.3z"/>
			<path class="st1" d="M38.3,68.1h-1.1v-0.3c0-0.2,0-0.3,0-0.3s-0.1-0.1-0.1-0.1c-0.1,0-0.1,0-0.2,0.1c0,0.1-0.1,0.1-0.1,0.3
				c0,0.1,0,0.3,0.1,0.3c0,0.1,0.1,0.2,0.3,0.3c0.5,0.3,0.8,0.6,1,0.8c0.1,0.2,0.2,0.5,0.2,1c0,0.3,0,0.6-0.1,0.7
				c-0.1,0.2-0.2,0.3-0.4,0.4c-0.2,0.1-0.5,0.2-0.7,0.2c-0.3,0-0.6-0.1-0.8-0.2c-0.2-0.1-0.4-0.3-0.4-0.5c-0.1-0.2-0.1-0.4-0.1-0.8
				v-0.3h1.1v0.5c0,0.2,0,0.3,0,0.3c0,0,0.1,0.1,0.2,0.1s0.1,0,0.2-0.1c0-0.1,0.1-0.2,0.1-0.3c0-0.3,0-0.4-0.1-0.5
				c-0.1-0.1-0.3-0.2-0.5-0.4c-0.3-0.2-0.5-0.3-0.6-0.4s-0.2-0.2-0.2-0.4c-0.1-0.2-0.1-0.3-0.1-0.6c0-0.3,0-0.6,0.1-0.8
				c0.1-0.2,0.2-0.3,0.4-0.4s0.4-0.1,0.7-0.1c0.3,0,0.6,0,0.8,0.1c0.2,0.1,0.4,0.2,0.4,0.4c0.1,0.1,0.1,0.4,0.1,0.8V68.1z"/>
			<path class="st1" d="M38.8,66.7h1.2c0.4,0,0.6,0,0.8,0.1c0.2,0.1,0.3,0.2,0.5,0.3c0.1,0.2,0.2,0.5,0.2,0.8c0,0.3,0,0.4-0.1,0.5
				c-0.1,0.1-0.2,0.2-0.5,0.2c0.3,0.1,0.5,0.2,0.5,0.3c0.1,0.1,0.1,0.4,0.1,0.7v0.4c0,0.3,0,0.5-0.1,0.7c-0.1,0.1-0.2,0.2-0.3,0.3
				c-0.2,0.1-0.5,0.1-0.9,0.1h-1.4V66.7z M39.9,67.5v1c0,0,0.1,0,0.1,0c0.1,0,0.2,0,0.2-0.1c0-0.1,0-0.2,0-0.5c0-0.1,0-0.2,0-0.3
				c0-0.1-0.1-0.1-0.1-0.1C40.1,67.5,40,67.5,39.9,67.5z M39.9,69.2v1.3c0.2,0,0.3,0,0.3-0.1c0,0,0.1-0.2,0.1-0.3v-0.4
				c0-0.2,0-0.3-0.1-0.3C40.2,69.2,40.1,69.2,39.9,69.2z"/>
			<path class="st1" d="M44.4,68.1h-1.1v-0.3c0-0.2,0-0.3,0-0.3s-0.1-0.1-0.1-0.1c-0.1,0-0.1,0-0.2,0.1c0,0.1-0.1,0.1-0.1,0.3
				c0,0.1,0,0.3,0.1,0.3c0,0.1,0.1,0.2,0.3,0.3c0.5,0.3,0.8,0.6,1,0.8c0.1,0.2,0.2,0.5,0.2,1c0,0.3,0,0.6-0.1,0.7
				c-0.1,0.2-0.2,0.3-0.4,0.4c-0.2,0.1-0.5,0.2-0.7,0.2c-0.3,0-0.6-0.1-0.8-0.2c-0.2-0.1-0.4-0.3-0.4-0.5c-0.1-0.2-0.1-0.4-0.1-0.8
				v-0.3h1.1v0.5c0,0.2,0,0.3,0,0.3c0,0,0.1,0.1,0.2,0.1s0.1,0,0.2-0.1c0-0.1,0.1-0.2,0.1-0.3c0-0.3,0-0.4-0.1-0.5
				c-0.1-0.1-0.3-0.2-0.5-0.4c-0.3-0.2-0.5-0.3-0.6-0.4s-0.2-0.2-0.2-0.4c-0.1-0.2-0.1-0.3-0.1-0.6c0-0.3,0-0.6,0.1-0.8
				c0.1-0.2,0.2-0.3,0.4-0.4s0.4-0.1,0.7-0.1c0.3,0,0.6,0,0.8,0.1c0.2,0.1,0.4,0.2,0.4,0.4c0.1,0.1,0.1,0.4,0.1,0.8V68.1z"/>
			<path class="st1" d="M48.6,68.7h-1.2v-0.8c0-0.2,0-0.4,0-0.4c0-0.1-0.1-0.1-0.2-0.1c-0.1,0-0.2,0-0.2,0.1c0,0.1,0,0.2,0,0.4V70
				c0,0.2,0,0.4,0,0.4c0,0.1,0.1,0.1,0.2,0.1c0.1,0,0.1,0,0.2-0.1c0-0.1,0-0.2,0-0.5v-0.6h1.2v0.2c0,0.5,0,0.8-0.1,1
				c-0.1,0.2-0.2,0.4-0.4,0.5c-0.2,0.1-0.5,0.2-0.8,0.2c-0.3,0-0.6-0.1-0.8-0.2c-0.2-0.1-0.4-0.3-0.4-0.5c-0.1-0.2-0.1-0.5-0.1-1
				v-1.3c0-0.3,0-0.6,0-0.7s0.1-0.3,0.2-0.5c0.1-0.1,0.3-0.3,0.5-0.4c0.2-0.1,0.4-0.1,0.7-0.1c0.3,0,0.6,0.1,0.9,0.2
				c0.2,0.1,0.4,0.3,0.4,0.5c0.1,0.2,0.1,0.5,0.1,0.9V68.7z"/>
			<path class="st1" d="M51.7,66.7v4.5h-1.2v-1.9h-0.3v1.9H49v-4.5h1.2v1.6h0.3v-1.6H51.7z"/>
			<path class="st1" d="M53.3,66.7v4.5h-1.2v-4.5H53.3z"/>
			<path class="st1" d="M54.9,66.7v3.6h0.7v0.9h-1.9v-4.5H54.9z"/>
			<path class="st1" d="M58.6,68.7h-1.2v-0.8c0-0.2,0-0.4,0-0.4c0-0.1-0.1-0.1-0.2-0.1c-0.1,0-0.2,0-0.2,0.1c0,0.1,0,0.2,0,0.4V70
				c0,0.2,0,0.4,0,0.4c0,0.1,0.1,0.1,0.2,0.1c0.1,0,0.1,0,0.2-0.1c0-0.1,0-0.2,0-0.5v-0.6h1.2v0.2c0,0.5,0,0.8-0.1,1
				c-0.1,0.2-0.2,0.4-0.4,0.5c-0.2,0.1-0.5,0.2-0.8,0.2c-0.3,0-0.6-0.1-0.8-0.2c-0.2-0.1-0.4-0.3-0.4-0.5c-0.1-0.2-0.1-0.5-0.1-1
				v-1.3c0-0.3,0-0.6,0-0.7s0.1-0.3,0.2-0.5c0.1-0.1,0.3-0.3,0.5-0.4c0.2-0.1,0.4-0.1,0.7-0.1c0.3,0,0.6,0.1,0.9,0.2
				c0.2,0.1,0.4,0.3,0.4,0.5c0.1,0.2,0.1,0.5,0.1,0.9V68.7z"/>
			<path class="st1" d="M61,66.7l0.7,4.5h-1.2l-0.1-0.8H60l-0.1,0.8h-1.2l0.6-4.5H61z M60.4,69.6c-0.1-0.5-0.1-1.1-0.2-1.9
				c-0.1,0.9-0.2,1.5-0.2,1.9H60.4z"/>
			<path class="st1" d="M66.5,66.7v4.5h-1l0-3l-0.4,3h-0.7l-0.4-3l0,3h-1v-4.5h1.5c0,0.3,0.1,0.6,0.1,1l0.2,1.1l0.3-2.1H66.5z"/>
			<path class="st1" d="M69,66.7l0.7,4.5h-1.2l-0.1-0.8H68l-0.1,0.8h-1.2l0.6-4.5H69z M68.4,69.6c-0.1-0.5-0.1-1.1-0.2-1.9
				c-0.1,0.9-0.2,1.5-0.2,1.9H68.4z"/>
			<path class="st1" d="M71,66.7v3.6h0.7v0.9h-1.9v-4.5H71z"/>
			<path class="st1" d="M74.2,66.7l0.7,4.5h-1.2l-0.1-0.8h-0.4l-0.1,0.8h-1.2l0.6-4.5H74.2z M73.5,69.6c-0.1-0.5-0.1-1.1-0.2-1.9
				c-0.1,0.9-0.2,1.5-0.2,1.9H73.5z"/>
		</g>
	</g>
</g>
<g>
	<g>
		<path class="st1" d="M95,32.2h2.8c1.8,0,3.1,0.1,3.7,0.2c0.7,0.1,1.2,0.5,1.6,1.1c0.4,0.6,0.6,1.5,0.6,2.8c0,1.2-0.1,2-0.4,2.4
			c-0.3,0.4-0.9,0.6-1.7,0.7c0.8,0.2,1.3,0.4,1.6,0.8c0.3,0.3,0.4,0.6,0.5,0.9c0.1,0.3,0.1,1,0.1,2.2v4h-3.6v-5
			c0-0.8-0.1-1.3-0.2-1.5c-0.1-0.2-0.5-0.3-1-0.3v6.8H95V32.2z M98.9,34.7v3.3c0.4,0,0.7-0.1,0.9-0.2c0.2-0.1,0.3-0.5,0.3-1.2v-0.8
			c0-0.5-0.1-0.8-0.3-0.9C99.7,34.8,99.4,34.7,98.9,34.7z"/>
		<path class="st1" d="M105.3,32.2h6.5v3h-2.6V38h2.4v2.9h-2.4v3.3h2.9v3h-6.8V32.2z"/>
		<path class="st1" d="M113.2,32.2h2.9c1.9,0,3.2,0.1,3.8,0.3c0.7,0.2,1.2,0.5,1.5,0.9c0.3,0.4,0.6,0.8,0.6,1.3
			c0.1,0.5,0.1,1.4,0.1,2.9v5.3c0,1.3-0.1,2.2-0.2,2.7c-0.1,0.5-0.3,0.8-0.7,1.1c-0.3,0.3-0.7,0.4-1.2,0.5c-0.5,0.1-1.2,0.2-2.1,0.2
			h-4.9V32.2z M117.1,34.7v9.9c0.6,0,0.9-0.1,1-0.3c0.1-0.2,0.2-0.8,0.2-1.8v-5.8c0-0.7,0-1.1-0.1-1.3c0-0.2-0.1-0.3-0.3-0.4
			C117.8,34.8,117.5,34.7,117.1,34.7z"/>
		<path class="st1" d="M127,32.2h2.9c1.9,0,3.2,0.1,3.8,0.3c0.7,0.2,1.2,0.5,1.5,0.9c0.3,0.4,0.6,0.8,0.6,1.3
			c0.1,0.5,0.1,1.4,0.1,2.9v5.3c0,1.3-0.1,2.2-0.2,2.7c-0.1,0.5-0.3,0.8-0.7,1.1c-0.3,0.3-0.7,0.4-1.2,0.5c-0.5,0.1-1.2,0.2-2.1,0.2
			H127V32.2z M130.9,34.7v9.9c0.6,0,0.9-0.1,1-0.3c0.1-0.2,0.2-0.8,0.2-1.8v-5.8c0-0.7,0-1.1-0.1-1.3c0-0.2-0.1-0.3-0.3-0.4
			C131.6,34.8,131.3,34.7,130.9,34.7z"/>
		<path class="st1" d="M137.5,32.2h6.5v3h-2.6V38h2.4v2.9h-2.4v3.3h2.9v3h-6.8V32.2z"/>
		<path class="st1" d="M157,36.7h-3.6v-1.1c0-0.5,0-0.9-0.1-1c-0.1-0.1-0.2-0.2-0.5-0.2c-0.2,0-0.4,0.1-0.5,0.3
			c-0.1,0.2-0.2,0.5-0.2,0.9c0,0.5,0.1,0.9,0.2,1.1c0.1,0.3,0.5,0.6,1.1,0.9c1.7,1,2.8,1.9,3.3,2.5c0.5,0.7,0.7,1.7,0.7,3.2
			c0,1.1-0.1,1.9-0.4,2.4c-0.3,0.5-0.7,0.9-1.5,1.3c-0.7,0.3-1.6,0.5-2.5,0.5c-1,0-1.9-0.2-2.7-0.6s-1.2-0.9-1.5-1.5
			c-0.2-0.6-0.3-1.5-0.3-2.6v-1h3.6v1.8c0,0.6,0.1,0.9,0.2,1.1c0.1,0.2,0.3,0.2,0.5,0.2s0.5-0.1,0.6-0.3c0.1-0.2,0.2-0.5,0.2-0.9
			c0-0.9-0.1-1.5-0.4-1.7c-0.2-0.3-0.9-0.7-1.8-1.4c-1-0.6-1.6-1.1-1.9-1.4c-0.3-0.3-0.6-0.7-0.8-1.2c-0.2-0.5-0.3-1.2-0.3-2
			c0-1.2,0.1-2,0.4-2.5c0.3-0.5,0.8-0.9,1.4-1.2c0.7-0.3,1.4-0.4,2.4-0.4c1,0,1.9,0.2,2.6,0.5c0.7,0.3,1.2,0.7,1.4,1.2
			c0.2,0.5,0.3,1.3,0.3,2.5V36.7z"/>
		<path class="st1" d="M165.3,32.2l2.2,15h-4l-0.2-2.7H162l-0.2,2.7h-4l2-15H165.3z M163.3,41.8c-0.2-1.7-0.4-3.8-0.6-6.3
			c-0.4,2.9-0.6,5-0.8,6.3H163.3z"/>
		<path class="st1" d="M172.1,32.2v12h2.4v3h-6.3v-15H172.1z"/>
		<path class="st1" d="M184.3,32.2v10c0,1.1,0,1.9-0.1,2.4c-0.1,0.5-0.3,0.9-0.7,1.4c-0.4,0.5-0.8,0.9-1.4,1.1
			c-0.6,0.3-1.3,0.4-2.1,0.4c-0.9,0-1.7-0.1-2.4-0.4c-0.7-0.3-1.2-0.7-1.5-1.2c-0.3-0.5-0.5-1-0.6-1.5c-0.1-0.5-0.1-1.6-0.1-3.3
			v-8.9h3.9v11.3c0,0.7,0,1.1,0.1,1.3c0.1,0.2,0.2,0.3,0.4,0.3c0.2,0,0.4-0.1,0.5-0.3c0.1-0.2,0.1-0.7,0.1-1.4V32.2H184.3z"/>
		<path class="st1" d="M185.8,32.2h2.9c1.9,0,3.2,0.1,3.8,0.3c0.7,0.2,1.2,0.5,1.5,0.9c0.3,0.4,0.6,0.8,0.7,1.3
			c0.1,0.5,0.1,1.4,0.1,2.9v5.3c0,1.3-0.1,2.2-0.2,2.7c-0.1,0.5-0.3,0.8-0.7,1.1c-0.3,0.3-0.7,0.4-1.2,0.5c-0.5,0.1-1.2,0.2-2.1,0.2
			h-4.9V32.2z M189.8,34.7v9.9c0.6,0,0.9-0.1,1-0.3c0.1-0.2,0.2-0.8,0.2-1.8v-5.8c0-0.7,0-1.1-0.1-1.3c0-0.2-0.1-0.3-0.3-0.4
			C190.5,34.8,190.2,34.7,189.8,34.7z"/>
		<path class="st1" d="M208.8,38.7h-3.9v-2.6c0-0.8,0-1.2-0.1-1.4c-0.1-0.2-0.3-0.3-0.6-0.3c-0.3,0-0.5,0.1-0.6,0.3
			c-0.1,0.2-0.1,0.7-0.1,1.5v7c0,0.7,0,1.2,0.1,1.4c0.1,0.2,0.3,0.3,0.6,0.3c0.3,0,0.5-0.1,0.6-0.3c0.1-0.2,0.1-0.7,0.1-1.6v-1.9
			h3.9v0.6c0,1.6-0.1,2.7-0.3,3.3s-0.7,1.2-1.5,1.7c-0.8,0.5-1.7,0.7-2.8,0.7c-1.1,0-2.1-0.2-2.8-0.6s-1.2-1-1.5-1.7
			c-0.2-0.7-0.4-1.8-0.4-3.3v-4.4c0-1.1,0-1.9,0.1-2.4c0.1-0.5,0.3-1.1,0.7-1.6s0.9-0.9,1.5-1.2c0.7-0.3,1.4-0.4,2.2-0.4
			c1.2,0,2.1,0.2,2.8,0.7s1.2,1,1.5,1.7c0.2,0.7,0.4,1.7,0.4,3.1V38.7z"/>
		<path class="st1" d="M219.2,32.2v15h-3.9v-6.3h-1.2v6.3h-3.9v-15h3.9v5.4h1.2v-5.4H219.2z"/>
		<path class="st1" d="M224.7,32.2v15h-3.9v-15H224.7z"/>
		<path class="st1" d="M230.1,32.2v12h2.4v3h-6.3v-15H230.1z"/>
		<path class="st1" d="M242.3,38.7h-3.9v-2.6c0-0.8,0-1.2-0.1-1.4c-0.1-0.2-0.3-0.3-0.6-0.3c-0.3,0-0.5,0.1-0.6,0.3
			c-0.1,0.2-0.1,0.7-0.1,1.5v7c0,0.7,0,1.2,0.1,1.4c0.1,0.2,0.3,0.3,0.6,0.3c0.3,0,0.5-0.1,0.6-0.3c0.1-0.2,0.1-0.7,0.1-1.6v-1.9
			h3.9v0.6c0,1.6-0.1,2.7-0.3,3.3s-0.7,1.2-1.5,1.7c-0.8,0.5-1.7,0.7-2.8,0.7c-1.1,0-2.1-0.2-2.8-0.6s-1.2-1-1.5-1.7
			c-0.2-0.7-0.4-1.8-0.4-3.3v-4.4c0-1.1,0-1.9,0.1-2.4c0.1-0.5,0.3-1.1,0.7-1.6s0.9-0.9,1.5-1.2c0.7-0.3,1.4-0.4,2.2-0.4
			c1.2,0,2.1,0.2,2.8,0.7s1.2,1,1.5,1.7c0.2,0.7,0.4,1.7,0.4,3.1V38.7z"/>
		<path class="st1" d="M250.4,32.2l2.2,15h-4l-0.2-2.7h-1.4l-0.2,2.7h-4l2-15H250.4z M248.4,41.8c-0.2-1.7-0.4-3.8-0.6-6.3
			c-0.4,2.9-0.6,5-0.8,6.3H248.4z"/>
		<path class="st1" d="M268.7,32.2v15h-3.4l0-10.1L264,47.2h-2.4l-1.4-9.9l0,9.9h-3.4v-15h5.1c0.2,0.9,0.3,2,0.5,3.2l0.6,3.8l0.9-7
			H268.7z"/>
		<path class="st1" d="M277.1,32.2l2.2,15h-4l-0.2-2.7h-1.4l-0.2,2.7h-4l2-15H277.1z M275,41.8c-0.2-1.7-0.4-3.8-0.6-6.3
			c-0.4,2.9-0.6,5-0.8,6.3H275z"/>
		<path class="st1" d="M283.9,32.2v12h2.4v3H280v-15H283.9z"/>
		<path class="st1" d="M294.4,32.2l2.2,15h-4l-0.2-2.7H291l-0.2,2.7h-4l2-15H294.4z M292.3,41.8c-0.2-1.7-0.4-3.8-0.6-6.3
			c-0.4,2.9-0.6,5-0.8,6.3H292.3z"/>
	</g>
	<g>
		<path class="st1" d="M105.4,61.6h-2V61c0-0.3,0-0.5-0.1-0.5c-0.1-0.1-0.1-0.1-0.3-0.1c-0.1,0-0.2,0.1-0.3,0.2
			c-0.1,0.1-0.1,0.3-0.1,0.5c0,0.3,0,0.5,0.1,0.6c0.1,0.1,0.3,0.3,0.6,0.5c1,0.6,1.6,1,1.8,1.4c0.2,0.4,0.4,1,0.4,1.8
			c0,0.6-0.1,1-0.2,1.3c-0.1,0.3-0.4,0.5-0.8,0.7c-0.4,0.2-0.9,0.3-1.4,0.3c-0.6,0-1.1-0.1-1.5-0.3c-0.4-0.2-0.7-0.5-0.8-0.8
			c-0.1-0.3-0.2-0.8-0.2-1.4v-0.5h2v1c0,0.3,0,0.5,0.1,0.6c0.1,0.1,0.2,0.1,0.3,0.1s0.3-0.1,0.3-0.2c0.1-0.1,0.1-0.3,0.1-0.5
			c0-0.5-0.1-0.8-0.2-1c-0.1-0.2-0.5-0.4-1-0.8c-0.5-0.4-0.9-0.6-1.1-0.8c-0.2-0.2-0.3-0.4-0.4-0.7c-0.1-0.3-0.2-0.6-0.2-1.1
			c0-0.6,0.1-1.1,0.2-1.4c0.2-0.3,0.4-0.5,0.8-0.7s0.8-0.2,1.3-0.2c0.6,0,1,0.1,1.4,0.3c0.4,0.2,0.7,0.4,0.8,0.7
			c0.1,0.3,0.2,0.7,0.2,1.4V61.6z"/>
		<path class="st1" d="M110.9,64.1h-2.7v1.5c0,0.3,0,0.5,0.1,0.6c0,0.1,0.1,0.1,0.3,0.1c0.2,0,0.3-0.1,0.3-0.2
			c0.1-0.1,0.1-0.3,0.1-0.7v-0.9h2v0.5c0,0.4,0,0.7-0.1,1c-0.1,0.2-0.2,0.5-0.4,0.7c-0.2,0.3-0.4,0.4-0.7,0.6
			c-0.3,0.1-0.7,0.2-1.1,0.2c-0.4,0-0.8-0.1-1.2-0.2c-0.3-0.1-0.6-0.3-0.8-0.5c-0.2-0.2-0.3-0.5-0.4-0.7c-0.1-0.3-0.1-0.7-0.1-1.2
			v-2c0-0.6,0.1-1.1,0.2-1.4c0.2-0.3,0.4-0.6,0.8-0.8c0.4-0.2,0.8-0.3,1.3-0.3c0.6,0,1.1,0.1,1.4,0.3c0.4,0.2,0.6,0.5,0.8,0.9
			c0.2,0.4,0.2,0.9,0.2,1.5V64.1z M108.8,63v-0.5c0-0.4,0-0.6-0.1-0.7c0-0.1-0.1-0.2-0.2-0.2c-0.1,0-0.2,0-0.3,0.1
			c0,0.1-0.1,0.3-0.1,0.7V63H108.8z"/>
		<path class="st1" d="M113.7,60.6l0,0.6c0.2-0.3,0.3-0.4,0.6-0.6c0.2-0.1,0.5-0.2,0.8-0.2c0.4,0,0.6,0.1,0.9,0.3s0.4,0.4,0.4,0.6
			c0.1,0.3,0.1,0.7,0.1,1.3v4.8h-2.1v-4.7c0-0.5,0-0.8,0-0.9c0-0.1-0.1-0.2-0.3-0.2c-0.1,0-0.2,0.1-0.3,0.2c0,0.1-0.1,0.4-0.1,0.9
			v4.6h-2.1v-6.8H113.7z"/>
		<path class="st1" d="M121.3,62.8h-1.8v-0.4c0-0.3,0-0.5-0.1-0.6c0-0.1-0.1-0.1-0.3-0.1c-0.1,0-0.2,0-0.3,0.1
			c-0.1,0.1-0.1,0.2-0.1,0.3c0,0.2,0,0.4,0,0.5c0,0.1,0.1,0.2,0.3,0.3c0.1,0.1,0.4,0.3,0.9,0.5c0.6,0.3,1,0.6,1.2,0.8
			s0.3,0.6,0.3,1.1c0,0.6-0.1,1-0.2,1.3s-0.4,0.5-0.7,0.7c-0.3,0.2-0.7,0.2-1.2,0.2c-0.5,0-1-0.1-1.4-0.2c-0.4-0.2-0.6-0.4-0.8-0.7
			s-0.2-0.7-0.2-1.3V65h1.8v0.4c0,0.4,0,0.6,0.1,0.7c0,0.1,0.1,0.2,0.3,0.2c0.1,0,0.2,0,0.3-0.1s0.1-0.2,0.1-0.5
			c0-0.3,0-0.5-0.1-0.6c-0.1-0.1-0.5-0.3-1.2-0.7c-0.6-0.3-1-0.7-1.1-0.9c-0.1-0.3-0.2-0.6-0.2-1c0-0.5,0.1-0.9,0.2-1.2
			s0.4-0.5,0.7-0.6c0.3-0.1,0.7-0.2,1.2-0.2c0.5,0,0.8,0.1,1.2,0.2c0.3,0.1,0.6,0.3,0.7,0.5c0.2,0.2,0.3,0.4,0.3,0.5
			c0,0.2,0.1,0.4,0.1,0.8V62.8z"/>
		<path class="st1" d="M124.2,59.1v1.1H122v-1.1H124.2z M124.2,60.6v6.8H122v-6.8H124.2z"/>
		<path class="st1" d="M127,59.1v2c0.2-0.2,0.4-0.3,0.6-0.4c0.2-0.1,0.4-0.1,0.7-0.1c0.3,0,0.5,0,0.7,0.1c0.2,0.1,0.4,0.2,0.5,0.4
			c0.1,0.2,0.2,0.3,0.2,0.5c0,0.2,0,0.5,0,1v3.1c0,0.5,0,0.9-0.1,1.1c-0.1,0.2-0.2,0.5-0.5,0.6s-0.5,0.3-0.9,0.3
			c-0.2,0-0.5-0.1-0.7-0.2c-0.2-0.1-0.4-0.3-0.6-0.5l-0.1,0.5h-1.9v-8.3H127z M127.6,62.5c0-0.4,0-0.6-0.1-0.7s-0.1-0.2-0.3-0.2
			c-0.1,0-0.2,0-0.2,0.1c0,0.1-0.1,0.3-0.1,0.7v2.9c0,0.4,0,0.6,0.1,0.7c0,0.1,0.1,0.2,0.3,0.2c0.1,0,0.2-0.1,0.3-0.2
			c0-0.1,0.1-0.4,0.1-0.8V62.5z"/>
		<path class="st1" d="M132.5,59.1v1.1h-2.1v-1.1H132.5z M132.5,60.6v6.8h-2.1v-6.8H132.5z"/>
		<path class="st1" d="M135.4,59.1v8.3h-2.1v-8.3H135.4z"/>
		<path class="st1" d="M138.2,59.1v1.1h-2.1v-1.1H138.2z M138.2,60.6v6.8h-2.1v-6.8H138.2z"/>
		<path class="st1" d="M143.7,59.1v8.3h-2.1v-0.5c-0.2,0.2-0.4,0.4-0.6,0.5c-0.2,0.1-0.4,0.2-0.7,0.2c-0.3,0-0.6-0.1-0.8-0.3
			c-0.2-0.2-0.4-0.4-0.5-0.6c-0.1-0.2-0.1-0.6-0.1-1.1v-3.2c0-0.5,0-0.9,0.1-1.1c0.1-0.2,0.2-0.4,0.5-0.6c0.2-0.2,0.5-0.3,0.9-0.3
			c0.3,0,0.5,0,0.7,0.1s0.4,0.2,0.6,0.4v-1.9H143.7z M141.6,62.3c0-0.2,0-0.4-0.1-0.5s-0.1-0.1-0.3-0.1c-0.1,0-0.2,0-0.2,0.1
			c0,0.1-0.1,0.3-0.1,0.5v3.3c0,0.3,0,0.5,0.1,0.5c0,0.1,0.1,0.1,0.2,0.1c0.1,0,0.2,0,0.3-0.1c0-0.1,0.1-0.3,0.1-0.7V62.3z"/>
		<path class="st1" d="M146.3,63.2h-1.9v-0.5c0-0.5,0.1-0.9,0.2-1.2c0.1-0.3,0.4-0.5,0.7-0.8c0.4-0.2,0.8-0.3,1.4-0.3
			c0.7,0,1.2,0.1,1.6,0.4c0.4,0.2,0.6,0.6,0.6,0.9c0.1,0.4,0.1,1.1,0.1,2.2v3.4h-2v-0.6c-0.1,0.2-0.3,0.4-0.5,0.5
			c-0.2,0.1-0.4,0.2-0.7,0.2c-0.4,0-0.7-0.1-1-0.3c-0.3-0.2-0.5-0.6-0.5-1.3v-0.6c0-0.5,0.1-0.9,0.2-1c0.2-0.2,0.6-0.4,1.2-0.6
			c0.7-0.3,1-0.4,1.1-0.5c0-0.1,0.1-0.3,0.1-0.6c0-0.4,0-0.6-0.1-0.7s-0.1-0.2-0.3-0.2c-0.1,0-0.2,0-0.3,0.1c0,0.1-0.1,0.3-0.1,0.7
			V63.2z M146.9,64.2c-0.3,0.2-0.5,0.4-0.6,0.6c-0.1,0.2-0.1,0.4-0.1,0.7c0,0.4,0,0.6,0.1,0.7c0,0.1,0.1,0.2,0.3,0.2
			c0.1,0,0.2,0,0.3-0.1s0.1-0.3,0.1-0.6V64.2z"/>
		<path class="st1" d="M154.4,59.1v8.3h-2.1v-0.5c-0.2,0.2-0.4,0.4-0.6,0.5c-0.2,0.1-0.4,0.2-0.7,0.2c-0.3,0-0.6-0.1-0.8-0.3
			c-0.2-0.2-0.4-0.4-0.5-0.6c-0.1-0.2-0.1-0.6-0.1-1.1v-3.2c0-0.5,0-0.9,0.1-1.1c0.1-0.2,0.2-0.4,0.5-0.6c0.2-0.2,0.5-0.3,0.9-0.3
			c0.3,0,0.5,0,0.7,0.1s0.4,0.2,0.6,0.4v-1.9H154.4z M152.4,62.3c0-0.2,0-0.4-0.1-0.5s-0.1-0.1-0.3-0.1c-0.1,0-0.2,0-0.2,0.1
			c0,0.1-0.1,0.3-0.1,0.5v3.3c0,0.3,0,0.5,0.1,0.5c0,0.1,0.1,0.1,0.2,0.1c0.1,0,0.2,0,0.3-0.1c0-0.1,0.1-0.3,0.1-0.7V62.3z"/>
		<path class="st1" d="M156.4,65.8v0.7c0,0.4,0,0.7-0.1,1c-0.1,0.3-0.3,0.5-0.5,0.6c-0.2,0.2-0.5,0.3-0.8,0.3v-0.6
			c0.2-0.1,0.3-0.3,0.3-0.5H155v-1.6H156.4z"/>
		<path class="st1" d="M158.9,59.1h1.5c1,0,1.7,0,2.1,0.1c0.4,0.1,0.7,0.3,0.9,0.6c0.2,0.3,0.3,0.8,0.3,1.5c0,0.6-0.1,1.1-0.2,1.3
			c-0.2,0.2-0.5,0.4-0.9,0.4c0.4,0.1,0.7,0.2,0.9,0.4c0.1,0.2,0.2,0.3,0.3,0.5s0.1,0.6,0.1,1.2v2.2h-2v-2.8c0-0.4,0-0.7-0.1-0.8
			c-0.1-0.1-0.3-0.2-0.6-0.2v3.7h-2.2V59.1z M161,60.5v1.8c0.2,0,0.4,0,0.5-0.1c0.1-0.1,0.1-0.3,0.1-0.6v-0.5c0-0.3,0-0.4-0.1-0.5
			S161.3,60.5,161,60.5z"/>
		<path class="st1" d="M169.1,64.1h-2.7v1.5c0,0.3,0,0.5,0.1,0.6c0,0.1,0.1,0.1,0.3,0.1c0.2,0,0.3-0.1,0.3-0.2
			c0.1-0.1,0.1-0.3,0.1-0.7v-0.9h2v0.5c0,0.4,0,0.7-0.1,1c-0.1,0.2-0.2,0.5-0.4,0.7c-0.2,0.3-0.4,0.4-0.7,0.6
			c-0.3,0.1-0.7,0.2-1.1,0.2c-0.4,0-0.8-0.1-1.2-0.2c-0.3-0.1-0.6-0.3-0.8-0.5c-0.2-0.2-0.3-0.5-0.4-0.7c-0.1-0.3-0.1-0.7-0.1-1.2
			v-2c0-0.6,0.1-1.1,0.2-1.4c0.2-0.3,0.4-0.6,0.8-0.8c0.4-0.2,0.8-0.3,1.3-0.3c0.6,0,1.1,0.1,1.4,0.3c0.4,0.2,0.6,0.5,0.8,0.9
			s0.2,0.9,0.2,1.5V64.1z M167.1,63v-0.5c0-0.4,0-0.6-0.1-0.7c0-0.1-0.1-0.2-0.2-0.2c-0.1,0-0.2,0-0.3,0.1c0,0.1-0.1,0.3-0.1,0.7V63
			H167.1z"/>
		<path class="st1" d="M174,62.8h-1.8v-0.4c0-0.3,0-0.5-0.1-0.6c0-0.1-0.1-0.1-0.3-0.1c-0.1,0-0.2,0-0.3,0.1
			c-0.1,0.1-0.1,0.2-0.1,0.3c0,0.2,0,0.4,0,0.5c0,0.1,0.1,0.2,0.3,0.3c0.1,0.1,0.4,0.3,0.9,0.5c0.6,0.3,1,0.6,1.2,0.8
			c0.2,0.3,0.3,0.6,0.3,1.1c0,0.6-0.1,1-0.2,1.3c-0.1,0.3-0.4,0.5-0.7,0.7s-0.7,0.2-1.2,0.2c-0.5,0-1-0.1-1.4-0.2
			c-0.4-0.2-0.6-0.4-0.8-0.7c-0.1-0.3-0.2-0.7-0.2-1.3V65h1.8v0.4c0,0.4,0,0.6,0.1,0.7c0,0.1,0.1,0.2,0.3,0.2c0.1,0,0.2,0,0.3-0.1
			c0.1-0.1,0.1-0.2,0.1-0.5c0-0.3,0-0.5-0.1-0.6c-0.1-0.1-0.5-0.3-1.2-0.7c-0.6-0.3-1-0.7-1.1-0.9c-0.1-0.3-0.2-0.6-0.2-1
			c0-0.5,0.1-0.9,0.2-1.2s0.4-0.5,0.7-0.6s0.7-0.2,1.2-0.2c0.5,0,0.8,0.1,1.2,0.2c0.3,0.1,0.6,0.3,0.7,0.5c0.2,0.2,0.3,0.4,0.3,0.5
			c0,0.2,0.1,0.4,0.1,0.8V62.8z"/>
		<path class="st1" d="M176.9,60.6l0,0.6c0.2-0.2,0.4-0.4,0.6-0.5c0.2-0.1,0.5-0.2,0.7-0.2c0.3,0,0.6,0.1,0.8,0.3
			c0.2,0.2,0.4,0.4,0.4,0.6c0.1,0.2,0.1,0.6,0.1,1.1v2.9c0,0.6,0,1.1-0.1,1.3c-0.1,0.3-0.2,0.5-0.5,0.6c-0.2,0.2-0.5,0.2-0.8,0.2
			c-0.3,0-0.5-0.1-0.7-0.2c-0.2-0.1-0.4-0.3-0.6-0.5v1.6h-2.1v-7.8H176.9z M177.5,62.6c0-0.4,0-0.7,0-0.8c0-0.1-0.1-0.1-0.3-0.1
			c-0.1,0-0.2,0.1-0.3,0.2c0,0.1-0.1,0.4-0.1,0.7v2.8c0,0.4,0,0.7,0.1,0.8c0,0.1,0.1,0.2,0.3,0.2c0.1,0,0.2,0,0.2-0.1
			c0-0.1,0-0.3,0-0.7V62.6z"/>
		<path class="st1" d="M184.9,64.1h-2.7v1.5c0,0.3,0,0.5,0.1,0.6c0,0.1,0.1,0.1,0.3,0.1c0.2,0,0.3-0.1,0.3-0.2
			c0.1-0.1,0.1-0.3,0.1-0.7v-0.9h2v0.5c0,0.4,0,0.7-0.1,1c-0.1,0.2-0.2,0.5-0.4,0.7c-0.2,0.3-0.4,0.4-0.7,0.6
			c-0.3,0.1-0.7,0.2-1.1,0.2c-0.4,0-0.8-0.1-1.2-0.2c-0.3-0.1-0.6-0.3-0.8-0.5c-0.2-0.2-0.3-0.5-0.4-0.7c-0.1-0.3-0.1-0.7-0.1-1.2
			v-2c0-0.6,0.1-1.1,0.2-1.4c0.2-0.3,0.4-0.6,0.8-0.8c0.4-0.2,0.8-0.3,1.3-0.3c0.6,0,1.1,0.1,1.4,0.3c0.4,0.2,0.6,0.5,0.8,0.9
			s0.2,0.9,0.2,1.5V64.1z M182.8,63v-0.5c0-0.4,0-0.6-0.1-0.7c0-0.1-0.1-0.2-0.2-0.2c-0.1,0-0.2,0-0.3,0.1c0,0.1-0.1,0.3-0.1,0.7V63
			H182.8z"/>
		<path class="st1" d="M187.8,59.7v1.1h0.6v1.1h-0.6v3.6c0,0.4,0,0.7,0.1,0.8c0,0.1,0.2,0.1,0.6,0.1v1.1h-0.8c-0.5,0-0.8,0-1-0.1
			c-0.2,0-0.4-0.1-0.5-0.3s-0.3-0.3-0.3-0.5c0-0.2-0.1-0.6-0.1-1.3v-3.5h-0.4v-1.1h0.4v-1.1H187.8z"/>
		<path class="st1" d="M193.5,63v1.7c0,0.6,0,1.1-0.1,1.3s-0.2,0.6-0.4,0.8c-0.2,0.2-0.5,0.4-0.8,0.5c-0.3,0.1-0.7,0.2-1.1,0.2
			c-0.5,0-0.8-0.1-1.2-0.2c-0.3-0.1-0.6-0.3-0.7-0.5c-0.2-0.2-0.3-0.5-0.4-0.7c-0.1-0.3-0.1-0.7-0.1-1.3v-1.7c0-0.6,0.1-1.1,0.2-1.5
			s0.4-0.6,0.7-0.9c0.4-0.2,0.8-0.3,1.4-0.3c0.5,0,0.9,0.1,1.2,0.2c0.3,0.1,0.6,0.3,0.8,0.5c0.2,0.2,0.3,0.5,0.4,0.7
			C193.4,62.2,193.5,62.5,193.5,63z M191.4,62.5c0-0.3,0-0.6-0.1-0.7c0-0.1-0.1-0.1-0.2-0.1s-0.2,0-0.2,0.1c0,0.1-0.1,0.3-0.1,0.7
			v3.1c0,0.3,0,0.5,0.1,0.6s0.1,0.1,0.2,0.1c0.1,0,0.2,0,0.2-0.1c0-0.1,0.1-0.3,0.1-0.6V62.5z"/>
		<path class="st1" d="M200.3,60.6l-0.6,4.9c-0.1,0.8-0.2,1.3-0.2,1.6c-0.1,0.3-0.2,0.5-0.3,0.7c-0.1,0.2-0.4,0.3-0.6,0.4
			c-0.3,0.1-0.7,0.1-1.3,0.1h-1.3v-1.1c0.3,0,0.5,0,0.6,0c0.1,0,0.1-0.1,0.1-0.2c0-0.1,0-0.3-0.1-0.7l-1.1-5.7h1.9l0.7,4.6l0.3-4.6
			H200.3z"/>
		<path class="st1" d="M207.7,62.7h-2.2v-1.4c0-0.4,0-0.7-0.1-0.8c0-0.1-0.1-0.2-0.3-0.2c-0.2,0-0.3,0.1-0.3,0.2s-0.1,0.4-0.1,0.8
			v3.9c0,0.4,0,0.7,0.1,0.8s0.2,0.2,0.3,0.2c0.2,0,0.3-0.1,0.3-0.2c0-0.1,0.1-0.4,0.1-0.9v-1h2.2v0.3c0,0.9-0.1,1.5-0.2,1.8
			c-0.1,0.4-0.4,0.7-0.8,0.9c-0.4,0.3-0.9,0.4-1.5,0.4c-0.6,0-1.2-0.1-1.6-0.3s-0.7-0.5-0.8-1c-0.1-0.4-0.2-1-0.2-1.8V62
			c0-0.6,0-1,0.1-1.3c0-0.3,0.2-0.6,0.4-0.9c0.2-0.3,0.5-0.5,0.8-0.7c0.4-0.2,0.8-0.2,1.2-0.2c0.6,0,1.2,0.1,1.6,0.4
			c0.4,0.2,0.7,0.6,0.8,0.9s0.2,0.9,0.2,1.7V62.7z"/>
		<path class="st1" d="M210.2,63.2h-1.9v-0.5c0-0.5,0.1-0.9,0.2-1.2c0.1-0.3,0.4-0.5,0.7-0.8c0.4-0.2,0.8-0.3,1.4-0.3
			c0.7,0,1.2,0.1,1.6,0.4c0.4,0.2,0.6,0.6,0.6,0.9c0.1,0.4,0.1,1.1,0.1,2.2v3.4h-2v-0.6c-0.1,0.2-0.3,0.4-0.5,0.5
			c-0.2,0.1-0.4,0.2-0.7,0.2c-0.4,0-0.7-0.1-1-0.3c-0.3-0.2-0.5-0.6-0.5-1.3v-0.6c0-0.5,0.1-0.9,0.2-1c0.2-0.2,0.6-0.4,1.2-0.6
			c0.7-0.3,1-0.4,1.1-0.5c0-0.1,0.1-0.3,0.1-0.6c0-0.4,0-0.6-0.1-0.7s-0.1-0.2-0.3-0.2c-0.1,0-0.2,0-0.3,0.1c0,0.1-0.1,0.3-0.1,0.7
			V63.2z M210.9,64.2c-0.3,0.2-0.5,0.4-0.6,0.6c-0.1,0.2-0.1,0.4-0.1,0.7c0,0.4,0,0.6,0.1,0.7c0,0.1,0.1,0.2,0.3,0.2
			c0.1,0,0.2,0,0.3-0.1s0.1-0.3,0.1-0.6V64.2z"/>
		<path class="st1" d="M215.8,59.1v8.3h-2.1v-8.3H215.8z"/>
		<path class="st1" d="M218.7,59.1v1.1h-2.1v-1.1H218.7z M218.7,60.6v6.8h-2.1v-6.8H218.7z"/>
		<path class="st1" d="M224.1,59.1v8.3h-2.1v-0.5c-0.2,0.2-0.4,0.4-0.6,0.5c-0.2,0.1-0.4,0.2-0.7,0.2c-0.3,0-0.6-0.1-0.8-0.3
			c-0.2-0.2-0.4-0.4-0.5-0.6c-0.1-0.2-0.1-0.6-0.1-1.1v-3.2c0-0.5,0-0.9,0.1-1.1c0.1-0.2,0.2-0.4,0.5-0.6c0.2-0.2,0.5-0.3,0.9-0.3
			c0.3,0,0.5,0,0.7,0.1s0.4,0.2,0.6,0.4v-1.9H224.1z M222.1,62.3c0-0.2,0-0.4-0.1-0.5s-0.1-0.1-0.3-0.1c-0.1,0-0.2,0-0.2,0.1
			c0,0.1-0.1,0.3-0.1,0.5v3.3c0,0.3,0,0.5,0.1,0.5c0,0.1,0.1,0.1,0.2,0.1c0.1,0,0.2,0,0.3-0.1c0-0.1,0.1-0.3,0.1-0.7V62.3z"/>
		<path class="st1" d="M229.6,64.1h-2.7v1.5c0,0.3,0,0.5,0.1,0.6c0,0.1,0.1,0.1,0.3,0.1c0.2,0,0.3-0.1,0.3-0.2
			c0.1-0.1,0.1-0.3,0.1-0.7v-0.9h2v0.5c0,0.4,0,0.7-0.1,1c-0.1,0.2-0.2,0.5-0.4,0.7c-0.2,0.3-0.4,0.4-0.7,0.6
			c-0.3,0.1-0.7,0.2-1.1,0.2c-0.4,0-0.8-0.1-1.2-0.2c-0.3-0.1-0.6-0.3-0.8-0.5c-0.2-0.2-0.3-0.5-0.4-0.7c-0.1-0.3-0.1-0.7-0.1-1.2
			v-2c0-0.6,0.1-1.1,0.2-1.4c0.2-0.3,0.4-0.6,0.8-0.8c0.4-0.2,0.8-0.3,1.3-0.3c0.6,0,1.1,0.1,1.4,0.3c0.4,0.2,0.6,0.5,0.8,0.9
			s0.2,0.9,0.2,1.5V64.1z M227.5,63v-0.5c0-0.4,0-0.6-0.1-0.7c0-0.1-0.1-0.2-0.2-0.2c-0.1,0-0.2,0-0.3,0.1c0,0.1-0.1,0.3-0.1,0.7V63
			H227.5z"/>
		<path class="st1" d="M233.5,60.6v1.5l-1.5,3.9h1.5v1.4h-3.5V66l1.6-4h-1.4v-1.4H233.5z"/>
		<path class="st1" d="M237.6,63.2h-1.9v-0.5c0-0.5,0.1-0.9,0.2-1.2c0.1-0.3,0.4-0.5,0.7-0.8c0.4-0.2,0.8-0.3,1.4-0.3
			c0.7,0,1.2,0.1,1.6,0.4c0.4,0.2,0.6,0.6,0.6,0.9c0.1,0.4,0.1,1.1,0.1,2.2v3.4h-2v-0.6c-0.1,0.2-0.3,0.4-0.5,0.5
			c-0.2,0.1-0.4,0.2-0.7,0.2c-0.4,0-0.7-0.1-1-0.3c-0.3-0.2-0.5-0.6-0.5-1.3v-0.6c0-0.5,0.1-0.9,0.2-1c0.2-0.2,0.6-0.4,1.2-0.6
			c0.7-0.3,1-0.4,1.1-0.5c0-0.1,0.1-0.3,0.1-0.6c0-0.4,0-0.6-0.1-0.7s-0.1-0.2-0.3-0.2c-0.1,0-0.2,0-0.3,0.1c0,0.1-0.1,0.3-0.1,0.7
			V63.2z M238.3,64.2c-0.3,0.2-0.5,0.4-0.6,0.6c-0.1,0.2-0.1,0.4-0.1,0.7c0,0.4,0,0.6,0.1,0.7c0,0.1,0.1,0.2,0.3,0.2
			c0.1,0,0.2,0,0.3-0.1s0.1-0.3,0.1-0.6V64.2z"/>
		<path class="st1" d="M247.1,62.8h-1.8v-0.4c0-0.3,0-0.5-0.1-0.6c0-0.1-0.1-0.1-0.3-0.1c-0.1,0-0.2,0-0.3,0.1
			c-0.1,0.1-0.1,0.2-0.1,0.3c0,0.2,0,0.4,0,0.5c0,0.1,0.1,0.2,0.3,0.3c0.1,0.1,0.4,0.3,0.9,0.5c0.6,0.3,1,0.6,1.2,0.8
			c0.2,0.3,0.3,0.6,0.3,1.1c0,0.6-0.1,1-0.2,1.3c-0.1,0.3-0.4,0.5-0.7,0.7s-0.7,0.2-1.2,0.2c-0.5,0-1-0.1-1.4-0.2
			c-0.4-0.2-0.6-0.4-0.8-0.7c-0.1-0.3-0.2-0.7-0.2-1.3V65h1.8v0.4c0,0.4,0,0.6,0.1,0.7c0,0.1,0.1,0.2,0.3,0.2c0.1,0,0.2,0,0.3-0.1
			c0.1-0.1,0.1-0.2,0.1-0.5c0-0.3,0-0.5-0.1-0.6c-0.1-0.1-0.5-0.3-1.2-0.7c-0.6-0.3-1-0.7-1.1-0.9c-0.1-0.3-0.2-0.6-0.2-1
			c0-0.5,0.1-0.9,0.2-1.2s0.4-0.5,0.7-0.6s0.7-0.2,1.2-0.2c0.5,0,0.8,0.1,1.2,0.2c0.3,0.1,0.6,0.3,0.7,0.5c0.2,0.2,0.3,0.4,0.3,0.5
			c0,0.2,0.1,0.4,0.1,0.8V62.8z"/>
		<path class="st1" d="M252.6,60.6v6.8h-2.1l0-0.6c-0.1,0.2-0.3,0.4-0.5,0.5c-0.2,0.1-0.5,0.2-0.7,0.2c-0.3,0-0.6-0.1-0.8-0.2
			s-0.4-0.3-0.5-0.4c-0.1-0.2-0.2-0.4-0.2-0.6c0-0.2,0-0.6,0-1.2v-4.6h2.1v4.6c0,0.5,0,0.8,0,0.9c0,0.1,0.1,0.1,0.3,0.1
			c0.2,0,0.2-0.1,0.3-0.2c0-0.1,0-0.4,0-1v-4.6H252.6z"/>
		<path class="st1" d="M259.8,61.6h-2V61c0-0.3,0-0.5-0.1-0.5c-0.1-0.1-0.1-0.1-0.3-0.1c-0.1,0-0.2,0.1-0.3,0.2
			c-0.1,0.1-0.1,0.3-0.1,0.5c0,0.3,0,0.5,0.1,0.6c0.1,0.1,0.3,0.3,0.6,0.5c1,0.6,1.6,1,1.8,1.4c0.3,0.4,0.4,1,0.4,1.8
			c0,0.6-0.1,1-0.2,1.3c-0.1,0.3-0.4,0.5-0.8,0.7c-0.4,0.2-0.9,0.3-1.4,0.3c-0.6,0-1.1-0.1-1.5-0.3c-0.4-0.2-0.7-0.5-0.8-0.8
			c-0.1-0.3-0.2-0.8-0.2-1.4v-0.5h2v1c0,0.3,0,0.5,0.1,0.6s0.2,0.1,0.3,0.1s0.3-0.1,0.3-0.2s0.1-0.3,0.1-0.5c0-0.5-0.1-0.8-0.2-1
			c-0.1-0.2-0.5-0.4-1-0.8c-0.5-0.4-0.9-0.6-1.1-0.8c-0.2-0.2-0.3-0.4-0.4-0.7s-0.2-0.6-0.2-1.1c0-0.6,0.1-1.1,0.2-1.4
			c0.2-0.3,0.4-0.5,0.8-0.7s0.8-0.2,1.3-0.2c0.6,0,1,0.1,1.4,0.3c0.4,0.2,0.7,0.4,0.8,0.7s0.2,0.7,0.2,1.4V61.6z"/>
		<path class="st1" d="M265.3,64.1h-2.7v1.5c0,0.3,0,0.5,0.1,0.6c0,0.1,0.1,0.1,0.3,0.1c0.2,0,0.3-0.1,0.3-0.2
			c0.1-0.1,0.1-0.3,0.1-0.7v-0.9h2v0.5c0,0.4,0,0.7-0.1,1c-0.1,0.2-0.2,0.5-0.4,0.7c-0.2,0.3-0.4,0.4-0.7,0.6
			c-0.3,0.1-0.7,0.2-1.1,0.2c-0.4,0-0.8-0.1-1.2-0.2c-0.3-0.1-0.6-0.3-0.8-0.5c-0.2-0.2-0.3-0.5-0.4-0.7c-0.1-0.3-0.1-0.7-0.1-1.2
			v-2c0-0.6,0.1-1.1,0.2-1.4c0.2-0.3,0.4-0.6,0.8-0.8c0.4-0.2,0.8-0.3,1.3-0.3c0.6,0,1.1,0.1,1.4,0.3c0.4,0.2,0.6,0.5,0.8,0.9
			s0.2,0.9,0.2,1.5V64.1z M263.2,63v-0.5c0-0.4,0-0.6-0.1-0.7c0-0.1-0.1-0.2-0.2-0.2c-0.1,0-0.2,0-0.3,0.1c0,0.1-0.1,0.3-0.1,0.7V63
			H263.2z"/>
		<path class="st1" d="M268.1,60.6l-0.1,0.9c0.3-0.6,0.7-1,1.3-1v2.4c-0.4,0-0.7,0.1-0.8,0.2s-0.3,0.2-0.3,0.4
			c0,0.2-0.1,0.6-0.1,1.3v2.7H266v-6.8H268.1z"/>
		<path class="st1" d="M274.2,60.6l-1,6.8h-2.7l-1-6.8h1.8l0.6,5c0-0.4,0.1-1.3,0.2-2.7c0.1-0.8,0.1-1.6,0.2-2.3H274.2z"/>
		<path class="st1" d="M276.7,59.1v1.1h-2.1v-1.1H276.7z M276.7,60.6v6.8h-2.1v-6.8H276.7z"/>
		<path class="st1" d="M282,63.2h-2v-0.8c0-0.3,0-0.5-0.1-0.6c0-0.1-0.1-0.1-0.2-0.1c-0.1,0-0.2,0-0.2,0.1s-0.1,0.3-0.1,0.6v3.2
			c0,0.2,0,0.4,0.1,0.5c0.1,0.1,0.2,0.2,0.3,0.2c0.1,0,0.2-0.1,0.3-0.2c0-0.1,0.1-0.4,0.1-0.7v-0.8h1.8c0,0.5,0,1-0.1,1.2
			c0,0.3-0.2,0.5-0.3,0.8c-0.2,0.3-0.4,0.5-0.8,0.6c-0.3,0.1-0.7,0.2-1.2,0.2c-0.6,0-1-0.1-1.4-0.3c-0.3-0.2-0.6-0.5-0.7-0.8
			c-0.1-0.4-0.2-0.9-0.2-1.5v-1.9c0-0.6,0.1-1,0.2-1.3c0.1-0.3,0.4-0.6,0.7-0.8c0.4-0.2,0.8-0.3,1.4-0.3c0.5,0,1,0.1,1.4,0.3
			c0.4,0.2,0.6,0.5,0.8,0.9C281.9,62,282,62.5,282,63.2z"/>
		<path class="st1" d="M284.7,59.1v1.1h-2.1v-1.1H284.7z M284.7,60.6v6.8h-2.1v-6.8H284.7z"/>
		<path class="st1" d="M290.2,63v1.7c0,0.6,0,1.1-0.1,1.3s-0.2,0.6-0.4,0.8c-0.2,0.2-0.5,0.4-0.8,0.5c-0.3,0.1-0.7,0.2-1.1,0.2
			c-0.5,0-0.8-0.1-1.2-0.2c-0.3-0.1-0.6-0.3-0.7-0.5c-0.2-0.2-0.3-0.5-0.4-0.7c-0.1-0.3-0.1-0.7-0.1-1.3v-1.7c0-0.6,0.1-1.1,0.2-1.5
			s0.4-0.6,0.7-0.9c0.4-0.2,0.8-0.3,1.4-0.3c0.5,0,0.9,0.1,1.2,0.2c0.3,0.1,0.6,0.3,0.8,0.5c0.2,0.2,0.3,0.5,0.4,0.7
			C290.1,62.2,290.2,62.5,290.2,63z M288.1,62.5c0-0.3,0-0.6-0.1-0.7c0-0.1-0.1-0.1-0.2-0.1s-0.2,0-0.2,0.1c0,0.1-0.1,0.3-0.1,0.7
			v3.1c0,0.3,0,0.5,0.1,0.6s0.1,0.1,0.2,0.1c0.1,0,0.2,0,0.2-0.1c0-0.1,0.1-0.3,0.1-0.6V62.5z"/>
	</g>
</g>
</svg>
