<?xml version="1.0" encoding="utf-8"?>
<!-- Generator: Adobe Illustrator 22.0.0, SVG Export Plug-In . SVG Version: 6.00 Build 0)  -->
<svg version="1.1" id="Layer_1" xmlns="http://www.w3.org/2000/svg" xmlns:xlink="http://www.w3.org/1999/xlink" x="0px" y="0px"
	 viewBox="0 0 300 100" style="enable-background:new 0 0 300 100;" xml:space="preserve">
<style type="text/css">
	.st0{fill:#666666;}
	.st1{font-family:'Rockwell-Bold';}
	.st2{font-size:48px;}
	.st3{font-size:21px;}
</style>
<g>
	<g>
		<g>
			<path class="st0" d="M25.3,16.6c0,0,4.6-4.2,10.1-0.6l5.4,6.2V32c0,0-8.8-7.8-8.7-8.8C32.2,22.3,27.4,17.2,25.3,16.6z"/>
		</g>
		<path class="st0" d="M12.3,31.3c0,0,3.7-6.1,10.5,0c0,0,7.6,9.4,9.5,9.4H20.9C20.9,40.8,15.2,32,12.3,31.3z"/>
		<path class="st0" d="M17.6,23.3c0,0,6.6-7.8,13.3,2.5c0,0,7.2,9,10.4,8.9v6.1h-4.9c0,0-9.9-8-10.2-10.2
			C25.7,28.5,17.6,23.3,17.6,23.3z"/>
	</g>
	<g>
		<g>
			<path class="st0" d="M79.3,85.2c0,0-4.6,4.2-10.1,0.6l-5.4-6.2v-9.9c0,0,8.8,7.8,8.7,8.8C72.4,79.5,77.1,84.6,79.3,85.2z"/>
		</g>
		<path class="st0" d="M92.3,70.4c0,0-3.7,6.1-10.5,0c0,0-7.6-9.4-9.5-9.4h11.4C83.7,61,89.4,69.8,92.3,70.4z"/>
		<path class="st0" d="M87,78.5c0,0-6.6,7.8-13.3-2.5c0,0-7.2-9-10.4-8.9V61h4.9c0,0,9.9,8,10.2,10.2C78.9,73.3,87,78.5,87,78.5z"/>
	</g>
	<g>
		<g>
			<path class="st0" d="M87.7,25.2c0,0,4.3,4.6,0.6,10.1l-6.1,5.4l-9.9,0c0,0,7.8-8.8,8.7-8.7C82,32.2,87.1,27.4,87.7,25.2z"/>
		</g>
		<path class="st0" d="M72.8,11.8c0,0,6.1,3.7,0,10.5c0,0-9.4,7.7-9.4,9.6l0-11.4C63.4,20.4,72.1,14.8,72.8,11.8z"/>
		<path class="st0" d="M80.9,17.1c0,0,7.8,6.6-2.5,13.3c0,0-9,7.2-8.9,10.4l-6.1,0l0-4.9c0,0,8-9.9,10.1-10.3S80.9,17.1,80.9,17.1z"
			/>
	</g>
	<g>
		<g>
			<path class="st0" d="M17,77c0,0-4.3-4.6-0.6-10.1l6.1-5.4l9.9,0c0,0-7.8,8.8-8.7,8.7C22.7,70.1,17.6,74.9,17,77z"/>
		</g>
		<path class="st0" d="M31.8,90c0,0-6.1-3.7,0-10.5c0,0,9.4-7.7,9.4-9.6l0,11.4C41.2,81.4,32.5,87,31.8,90z"/>
		<path class="st0" d="M23.7,84.7c0,0-7.8-6.6,2.5-13.3c0,0,9-7.2,8.9-10.4l6.1,0l0,4.9c0,0-8,9.9-10.1,10.3
			C28.9,76.6,23.7,84.7,23.7,84.7z"/>
	</g>
	<polygon class="st0" points="43.6,7 61.1,7 61.1,42.2 97.7,42.2 97.7,59.5 61.1,59.5 61.5,94 43.6,94 43.6,59.5 7.3,59.3 7.3,42.4 
		43.5,42 	"/>
</g>
<text transform="matrix(1 0 0 1 106.6655 56.3335)" class="st0 st1 st2">Cáritas</text>
<text transform="matrix(1 0 0 1 113.3345 80.3335)" class="st0 st1 st3">Cañete - Yauyos</text>
</svg>
