<?xml version="1.0" encoding="utf-8"?>
<!-- Generator: Adobe Illustrator 22.0.0, SVG Export Plug-In . SVG Version: 6.00 Build 0)  -->
<svg version="1.1" id="Layer_1" xmlns="http://www.w3.org/2000/svg" xmlns:xlink="http://www.w3.org/1999/xlink" x="0px" y="0px"
	 viewBox="0 0 300 100" style="enable-background:new 0 0 300 100;" xml:space="preserve">
<style type="text/css">
	.st0{fill:#666666;}
</style>
<g>
	<path class="st0" d="M205.9,42.8c-0.1-0.6-0.1-1.2-0.1-1.8c-0.3,0.9-0.6,1.8-0.9,2.5s-0.5,1.2-0.6,1.6l-3.6,7.9h7.2l-1.6-8
		C206.1,44.2,205.9,43.4,205.9,42.8z"/>
	<path class="st0" d="M271.5,20.9h-103c-6.6,0-12,5.4-12,12v34c0,6.6,5.4,12,12,12h103c6.6,0,12-5.4,12-12v-34
		C283.5,26.3,278.1,20.9,271.5,20.9z M172.6,67.1h-9.2l5.4-34.3h19.8l-1.2,7.9h-10.7l-0.9,5.6h10l-1.2,7.4h-9.9L172.6,67.1z
		 M210.5,67.1l-1.4-6.5h-12l-3.3,6.5h-10L201,32.8h11.5l7.3,34.3H210.5z M237.9,45.6c0.8,0.4,1.5,0.8,1.9,1c2.4,1.3,4.1,2.7,5,4.1
		s1.4,3.1,1.4,5.2c0,3.7-1.3,6.6-3.8,8.8s-6,3.3-10.4,3.3c-2.3,0-4.4-0.5-6.4-1.5s-3.8-2.4-5.4-4.3l4.8-6.9c1.4,1.5,2.8,2.7,4.1,3.4
		s2.7,1.1,4,1.1c1.2,0,2.1-0.3,2.8-0.8s1-1.3,1-2.2c0-1.3-1.4-2.6-4.2-4.1c-0.3-0.1-0.5-0.3-0.6-0.3c-2.7-1.4-4.6-2.8-5.6-4.1
		s-1.5-2.9-1.5-4.7c0-3.4,1.1-6.2,3.4-8.3s5.2-3.2,8.8-3.2c1.9,0,3.7,0.3,5.5,1s3.4,1.7,5,3l-3.9,6.8c-1.2-1.1-2.4-1.9-3.4-2.4
		s-2-0.8-2.8-0.8c-0.9,0-1.7,0.3-2.3,0.8s-0.9,1.2-0.9,2C234.4,43.3,235.6,44.4,237.9,45.6z M275.2,40.7h-7.3l-4.2,26.3h-9.2
		l4.2-26.3h-7.7l1.3-8h24.2L275.2,40.7z"/>
</g>
<g>
	<path class="st0" d="M29.3,58.5c0.8,1.4,1.8,2.4,2.8,3.1s2.3,1,3.8,1c1.5,0,2.7-0.4,3.6-1.2s1.3-2,1.3-3.4c0-0.9-0.3-1.8-0.8-2.5
		s-1.3-1.4-2.3-1.9c-0.3-0.1-0.6-0.3-1.1-0.6c-2.8-1.5-4.7-2.8-5.7-3.9c-0.7-0.8-1.2-1.7-1.6-2.7s-0.6-2.1-0.6-3.3
		c0-3,1.1-5.4,3.2-7.4s4.8-3,8-3c2,0,3.7,0.4,5.2,1.1s2.8,1.8,3.9,3.3l-3.7,4.8c-0.6-1.1-1.4-2-2.3-2.6s-1.9-0.8-3.1-0.8
		c-1.3,0-2.4,0.4-3.3,1.1s-1.3,1.7-1.3,2.9c0,1.5,1.4,3.1,4.3,4.7c0.5,0.3,1,0.6,1.2,0.7c2.6,1.5,4.3,3,5.3,4.5
		c0.9,1.5,1.4,3.3,1.4,5.6c0,3.2-1.1,5.8-3.2,7.8s-5,3-8.6,3c-2.2,0-4.1-0.4-5.8-1.3s-3.2-2.2-4.5-3.9L29.3,58.5z"/>
	<path class="st0" d="M52,67.7l4.5-34.3h20.4l-0.8,6H62.8l-1,7.7h13.3L74.3,53H61l-1.1,8.6h13.3l-0.8,6H52z"/>
	<path class="st0" d="M86.8,67.7h-7.2l4.5-34.3h7.1c3,0,5.1,0.2,6.5,0.5s2.5,0.8,3.5,1.6c1.1,0.8,2,1.8,2.5,3s0.9,2.5,0.9,3.9
		c0,2.6-0.7,4.8-2.2,6.5s-3.6,2.9-6.4,3.5l7.8,15.4h-7.9l-7.1-15.8L86.8,67.7z M89.4,48.2h1.1c2.7,0,4.6-0.4,5.5-1.1s1.5-2,1.5-3.8
		c0-1.5-0.4-2.6-1.2-3.3S93.8,39,91.4,39h-0.8L89.4,48.2z"/>
	<path class="st0" d="M106.8,33.4h7.5l5.1,20.6c0,0,0,0.1,0,0.2c0.6,2.3,0.9,4.2,1.1,5.8c0.4-1.8,1.3-3.9,2.5-6.4
		c0.1-0.2,0.2-0.3,0.2-0.4l9.9-19.7h7.8l-18.1,34.3h-7L106.8,33.4z"/>
	<path class="st0" d="M139.7,67.7l4.5-34.3h7.2l-4.5,34.3H139.7z"/>
</g>
</svg>
